<svg width="101" height="60" viewBox="0 0 101 60" fill="none" xmlns="http://www.w3.org/2000/svg">
<path d="M28.2754 21.7909C28.2754 23.0256 28.4088 24.0267 28.6424 24.7608C28.9094 25.495 29.2431 26.2959 29.7103 27.1635C29.8771 27.4305 29.9439 27.6974 29.9439 27.931C29.9439 28.2647 29.7437 28.5984 29.3099 28.9321L27.2075 30.3337C26.9072 30.5339 26.6068 30.634 26.3399 30.634C26.0062 30.634 25.6725 30.4672 25.3388 30.1668C24.8716 29.6663 24.4711 29.1324 24.1374 28.5984C23.8037 28.0311 23.47 27.3971 23.103 26.6296C20.5001 29.6997 17.2298 31.2347 13.2921 31.2347C10.4889 31.2347 8.25312 30.4338 6.61797 28.832C4.98282 27.2303 4.14856 25.0945 4.14856 22.4249C4.14856 19.5884 5.14967 17.2859 7.18527 15.5506C9.22086 13.8153 11.9239 12.9477 15.361 12.9477C16.4956 12.9477 17.6636 13.0478 18.8983 13.2147C20.133 13.3815 21.4011 13.6485 22.7359 13.9488V11.5128C22.7359 8.97664 22.202 7.20801 21.1675 6.17353C20.0996 5.13904 18.2976 4.63849 15.7281 4.63849C14.5601 4.63849 13.3588 4.77197 12.1241 5.0723C10.8894 5.37264 9.68805 5.73971 8.52008 6.2069C7.98616 6.44049 7.58571 6.57397 7.35212 6.64071C7.11853 6.70745 6.95167 6.74082 6.81819 6.74082C6.35101 6.74082 6.11741 6.40712 6.11741 5.70634V4.07119C6.11741 3.53726 6.18415 3.13682 6.35101 2.90323C6.51786 2.66963 6.81819 2.43604 7.28538 2.20245C8.45334 1.60178 9.8549 1.10122 11.4901 0.700779C13.1252 0.266963 14.8605 0.0667408 16.6958 0.0667408C20.6669 0.0667408 23.5701 0.967742 25.4389 2.76974C27.2743 4.57175 28.2086 7.30812 28.2086 10.9789V21.7909H28.2754ZM14.727 26.8632C15.8282 26.8632 16.9628 26.663 18.1641 26.2625C19.3655 25.8621 20.4333 25.1279 21.3343 24.1268C21.8682 23.4928 22.2687 22.792 22.4689 21.9911C22.6691 21.1902 22.8026 20.2225 22.8026 19.0879V17.6863C21.8349 17.4527 20.8004 17.2525 19.7325 17.119C18.6647 16.9855 17.6302 16.9188 16.5957 16.9188C14.3599 16.9188 12.7248 17.3526 11.6235 18.2536C10.5223 19.1546 9.98838 20.4227 9.98838 22.0912C9.98838 23.6596 10.3888 24.8276 11.2231 25.6285C12.024 26.4627 13.1919 26.8632 14.727 26.8632ZM41.5234 30.4672C40.9228 30.4672 40.5223 30.3671 40.2553 30.1335C39.9884 29.9333 39.7548 29.4661 39.5546 28.832L31.7125 3.03671C31.5123 2.3693 31.4122 1.93548 31.4122 1.70189C31.4122 1.16796 31.6791 0.867631 32.2131 0.867631H35.4834C36.1174 0.867631 36.5512 0.967742 36.7848 1.20133C37.0518 1.40156 37.252 1.86874 37.4522 2.50278L43.0585 24.594L48.2642 2.50278C48.4311 1.83537 48.6313 1.40156 48.8983 1.20133C49.1652 1.00111 49.6324 0.867631 50.2331 0.867631H52.9027C53.5368 0.867631 53.9706 0.967742 54.2375 1.20133C54.5045 1.40156 54.7381 1.86874 54.8716 2.50278L60.1441 24.861L65.9172 2.50278C66.1174 1.83537 66.351 1.40156 66.5846 1.20133C66.8516 1.00111 67.2854 0.867631 67.8861 0.867631H70.9895C71.5234 0.867631 71.8238 1.13459 71.8238 1.70189C71.8238 1.86874 71.7904 2.03559 71.757 2.23582C71.7236 2.43604 71.6569 2.703 71.5234 3.07008L63.4812 28.8654C63.2809 29.5328 63.0473 29.9666 62.7804 30.1668C62.5134 30.3671 62.0796 30.5006 61.5123 30.5006H58.6424C58.0084 30.5006 57.5746 30.4004 57.3076 30.1668C57.0407 29.9333 56.8071 29.4994 56.6736 28.832L51.5012 7.30812L46.3621 28.7987C46.1953 29.4661 45.9951 29.8999 45.7281 30.1335C45.4611 30.3671 44.9939 30.4672 44.3933 30.4672H41.5234ZM84.4044 31.3682C82.6691 31.3682 80.9339 31.168 79.2654 30.7675C77.5968 30.3671 76.2954 29.9333 75.4278 29.4327C74.8938 29.1324 74.5268 28.7987 74.3933 28.4983C74.2598 28.198 74.1931 27.8643 74.1931 27.564V25.8621C74.1931 25.1613 74.46 24.8276 74.9606 24.8276C75.1608 24.8276 75.361 24.861 75.5612 24.9277C75.7615 24.9944 76.0618 25.1279 76.3955 25.2614C77.5301 25.762 78.7648 26.1624 80.0663 26.4294C81.4011 26.6963 82.7025 26.8298 84.0373 26.8298C86.1397 26.8298 87.7748 26.4627 88.9094 25.7286C90.044 24.9944 90.6447 23.9266 90.6447 22.5584C90.6447 21.624 90.3443 20.8565 89.7437 20.2225C89.143 19.5884 88.0084 19.0211 86.3733 18.4872L81.5345 16.9855C79.0985 16.218 77.2965 15.0834 76.1953 13.5818C75.0941 12.1135 74.5268 10.4783 74.5268 8.74305C74.5268 7.34149 74.8271 6.10678 75.4278 5.03893C76.0284 3.97108 76.8293 3.03671 77.8304 2.30256C78.8315 1.53504 79.9661 0.967742 81.301 0.567297C82.6358 0.166852 84.0373 0 85.5056 0C86.2398 0 87.0073 0.0333704 87.7414 0.133482C88.509 0.233593 89.2097 0.367075 89.9105 0.500556C90.5779 0.667408 91.212 0.83426 91.8126 1.03448C92.4133 1.23471 92.8805 1.43493 93.2142 1.63515C93.6814 1.90211 94.0151 2.16908 94.2153 2.46941C94.4155 2.73637 94.5156 3.10345 94.5156 3.57063V5.13904C94.5156 5.83982 94.2487 6.2069 93.7481 6.2069C93.4812 6.2069 93.0473 6.07341 92.48 5.80645C90.5779 4.93882 88.4422 4.50501 86.0729 4.50501C84.1708 4.50501 82.6691 4.80534 81.6347 5.43938C80.6002 6.07341 80.0663 7.04116 80.0663 8.40934C80.0663 9.34371 80.4 10.1446 81.0674 10.7786C81.7348 11.4127 82.9695 12.0467 84.7381 12.614L89.4767 14.1157C91.8794 14.8832 93.6146 15.9511 94.6491 17.3192C95.6836 18.6874 96.1842 20.2558 96.1842 21.9911C96.1842 23.426 95.8838 24.7275 95.3165 25.8621C94.7159 26.9967 93.915 27.9978 92.8805 28.7987C91.846 29.6329 90.6113 30.2336 89.1764 30.6674C87.6747 31.1346 86.1063 31.3682 84.4044 31.3682Z" fill="#252F3E"/>
<path d="M90.7115 47.5862C79.7326 55.6952 63.7815 60 50.0663 60C30.8449 60 13.5257 52.8921 0.4445 41.079C-0.589983 40.1446 0.344388 38.8765 1.57909 39.6107C15.7281 47.8198 33.1809 52.792 51.2343 52.792C63.4145 52.792 76.796 50.2558 89.1097 45.05C90.9451 44.2158 92.5135 46.2514 90.7115 47.5862ZM95.2832 42.3804C93.8817 40.5784 86.0062 41.5128 82.4356 41.9466C81.3677 42.0801 81.2009 41.1457 82.1686 40.4449C88.4423 36.04 98.7537 37.3081 99.9551 38.7764C101.156 40.2781 99.6214 50.5895 93.7482 55.5284C92.8472 56.2959 91.9795 55.8954 92.38 54.8943C93.7148 51.5906 96.6848 44.149 95.2832 42.3804Z" fill="#FF9900"/>
</svg>
