<svg width="81" height="80" viewBox="0 0 81 80" fill="none" xmlns="http://www.w3.org/2000/svg">
<g clip-path="url(#clip0_3098_2098)">
<path d="M80.9185 40C80.9185 62.0914 63.0098 80 40.9185 80C18.8271 80 0.918457 62.0914 0.918457 40C0.918457 17.9086 18.8271 0 40.9185 0C63.0098 0 80.9185 17.9086 80.9185 40Z" fill="#262626"/>
<path d="M70.1009 55.6222C67.9876 56.161 66.6805 55.6458 65.5077 53.88L57.1674 42.3092L55.9619 40.7072L46.2219 53.9182C45.109 55.5075 43.9417 56.1993 41.8648 55.6367L54.3371 38.8485L42.7253 23.684C44.7223 23.2945 46.1021 23.4929 47.3275 25.2861L55.9783 37.0007L64.6925 25.3498C65.8091 23.7605 67.0091 23.1561 69.0134 23.7423L64.511 29.728L58.411 37.6925C57.6848 38.6027 57.7847 39.2253 58.4528 40.1046L70.1009 55.6222ZM12.0201 38.5681L13.0404 33.5364C15.8181 23.5785 27.2012 19.4406 35.0513 25.5937C39.639 29.2128 40.7791 34.3319 40.5522 40.0664H14.6925C14.304 50.3884 21.713 56.618 31.1589 53.4394C34.4721 52.3235 36.4238 49.7221 37.4005 46.4671C37.8961 44.836 38.7167 44.5811 40.2453 45.0471C39.4647 49.1177 37.7037 52.5183 33.982 54.6464C28.4212 57.8322 20.4839 56.8018 16.3083 52.3745C13.8211 49.8058 12.7935 46.5508 12.3324 43.0701C12.2598 42.4948 12.1145 41.9469 12.0056 41.3953C12.0153 40.4535 12.0201 39.5117 12.0201 38.5699V38.5681ZM14.7397 37.8763H38.1085C37.956 30.4125 33.3211 25.1113 26.9869 25.0658C20.0337 25.0112 15.0411 30.1867 14.7397 37.8763Z" fill="white"/>
</g>
<defs>
<clipPath id="clip0_3098_2098">
<rect width="80" height="80" fill="white" transform="translate(0.918457)"/>
</clipPath>
</defs>
</svg>
