<svg width="91" height="90" viewBox="0 0 91 90" fill="none" xmlns="http://www.w3.org/2000/svg">
<g clip-path="url(#clip0_3098_2101)">
<path d="M0.937012 0H90.937V90H0.937012V0Z" fill="#F7DF1E"/>
<path d="M24.6012 75.2106L31.4886 71.0424C32.8174 73.3983 34.0261 75.3916 36.9254 75.3916C39.7045 75.3916 41.4566 74.3044 41.4566 70.0759V41.3187H49.9144V70.1954C49.9144 78.9554 44.7795 82.9427 37.2879 82.9427C30.5221 82.9427 26.5946 79.4386 24.6011 75.2099" fill="black"/>
<path d="M54.5085 74.3043L61.3951 70.3171C63.208 73.2776 65.5641 75.4523 69.7324 75.4523C73.2368 75.4523 75.4715 73.7002 75.4715 71.2836C75.4715 68.3838 73.176 67.3566 69.3094 65.6656L67.1955 64.7588C61.0934 62.1615 57.0455 58.8992 57.0455 52.0119C57.0455 45.6685 61.8785 40.8352 69.4305 40.8352C74.8074 40.8352 78.6738 42.7082 81.4525 47.6018L74.8674 51.8305C73.4174 49.2329 71.8471 48.2061 69.4307 48.2061C66.9537 48.2061 65.3828 49.7768 65.3828 51.8305C65.3828 54.3679 66.9537 55.3952 70.5781 56.9661L72.6924 57.8722C79.8817 60.9535 83.9295 64.0946 83.9295 71.1628C83.9295 78.7753 77.9487 82.9435 69.9138 82.9435C62.0601 82.9435 56.9851 79.1981 54.5085 74.3043Z" fill="black"/>
</g>
<defs>
<clipPath id="clip0_3098_2101">
<rect width="90" height="90" fill="white" transform="translate(0.937012)"/>
</clipPath>
</defs>
</svg>
