<svg width="211" height="60" viewBox="0 0 211 60" fill="none" xmlns="http://www.w3.org/2000/svg">
<path fill-rule="evenodd" clip-rule="evenodd" d="M196.631 24.8133C196.441 24.8512 196.251 25.2691 196.251 25.4968C196.213 27.0171 196.175 31.045 196.175 33.7808C196.175 33.8569 196.289 34.0089 196.403 34.0089C196.973 34.0468 198.341 34.0847 199.519 34.0847C201.153 34.0847 202.103 33.8569 202.635 33.6292C204.002 32.9449 204.648 31.4629 204.648 29.8286C204.648 26.1433 202.065 24.7371 198.227 24.7371C197.961 24.6992 197.201 24.6992 196.631 24.8133ZM206.435 41.7987C206.435 38.0368 203.661 35.9467 198.645 35.9467C198.417 35.9467 196.821 35.9088 196.441 35.9846C196.327 36.0228 196.175 36.099 196.175 36.2131C196.175 38.9106 196.137 43.2049 196.251 44.8767C196.327 45.5985 196.859 46.6246 197.505 46.9285C198.189 47.3086 199.747 47.3844 200.811 47.3844C203.813 47.3844 206.435 45.7126 206.435 41.7987ZM188.879 22.7236C189.259 22.7236 190.399 22.8372 193.325 22.8372C196.099 22.8372 198.303 22.7614 201.001 22.7614C204.306 22.7614 208.866 23.9391 208.866 28.8791C208.866 31.311 207.156 33.2492 204.914 34.1991C204.801 34.237 204.801 34.3128 204.914 34.3507C208.106 35.1491 210.918 37.1247 210.918 40.8484C210.918 44.4966 208.639 46.8145 205.332 48.2585C203.318 49.1323 200.811 49.4362 198.265 49.4362C196.327 49.4362 191.121 49.2085 188.233 49.2847C187.929 49.1702 188.499 47.8023 188.765 47.5746C189.449 47.5363 189.981 47.4984 190.703 47.2703C191.729 47.0047 191.843 46.7004 191.995 45.1427C192.071 43.8127 192.071 39.1004 192.071 35.7568C192.071 31.159 192.109 28.0432 192.071 26.5234C192.033 25.3457 191.615 24.9652 190.779 24.7371C190.133 24.6235 189.069 24.4711 188.195 24.3575C188.005 24.1672 188.651 22.8751 188.879 22.7236ZM166.954 46.3586C167.866 47.0801 169.652 47.3839 171.248 47.3839C173.3 47.3839 175.352 47.0047 177.328 45.218C179.342 43.3947 180.747 40.5828 180.747 36.099C180.747 31.8047 179.113 28.3088 175.77 26.2574C173.87 25.0789 171.438 24.5856 168.626 24.5856C167.79 24.5856 166.992 24.6235 166.498 24.8512C166.384 24.9273 166.118 25.2691 166.118 25.4589C166.042 26.2191 166.042 32.0707 166.042 35.4908C166.042 39.0246 166.042 43.9646 166.118 44.5345C166.118 45.1048 166.384 45.9786 166.954 46.3586H166.954ZM158.328 22.7231C159.05 22.7231 161.824 22.8372 163.154 22.8372C165.548 22.8372 167.258 22.7236 171.779 22.7236C175.579 22.7236 178.771 23.7493 181.051 25.6871C183.825 28.0811 185.269 31.3872 185.269 35.4147C185.269 41.1527 182.647 44.4587 180.025 46.3586C177.404 48.2964 173.984 49.4362 169.12 49.4362C166.536 49.4362 162.09 49.3604 158.404 49.3221H158.366C158.176 48.9804 158.67 47.6504 158.974 47.6125C159.962 47.4984 160.228 47.4601 160.722 47.2707C161.52 46.9664 161.672 46.5485 161.786 45.1427C161.9 42.5206 161.862 39.3668 161.862 35.7947C161.862 33.2492 161.9 28.2709 161.824 26.6749C161.71 25.3453 161.14 25.0031 160 24.775C159.43 24.6613 158.67 24.509 157.606 24.3953C157.454 24.1289 158.138 22.9509 158.328 22.7231Z" fill="#8E714E"/>
<path fill-rule="evenodd" clip-rule="evenodd" d="M112.35 47.8402C111.4 47.7261 110.716 47.5746 109.88 47.1945C109.766 47.1183 109.576 46.7387 109.576 46.5863C109.5 45.2563 109.5 41.4565 109.5 38.911C109.5 36.8587 109.158 35.0729 108.284 33.819C107.258 32.3745 105.776 31.5391 103.876 31.5391C102.204 31.5391 99.9622 32.6788 98.1002 34.2749C98.0623 34.3127 97.7584 34.5792 97.7963 34.1608C97.7963 33.7428 97.8725 32.907 97.9103 32.3367C97.9486 31.8047 97.6443 31.5391 97.6443 31.5391C96.4284 32.1468 93.0086 32.9448 91.7544 33.0585C90.8427 33.2491 90.6146 34.1229 91.565 34.4268H91.6029C92.6282 34.7307 93.3125 35.0729 93.8441 35.415C94.2242 35.7189 94.1863 36.1369 94.1863 36.479C94.2242 39.3285 94.2242 43.6986 94.1105 46.0926C94.0727 47.0426 93.8067 47.3843 93.1223 47.5363L93.1985 47.4984C92.6665 47.6124 92.2485 47.7261 91.6025 47.8023C91.3743 48.0304 91.3743 49.2463 91.6025 49.5123C92.0204 49.5123 94.2242 49.3983 96.0487 49.3983C98.5564 49.3983 99.8485 49.5123 100.494 49.5123C100.76 49.2085 100.836 48.0683 100.684 47.8023C99.9622 47.7644 99.4302 47.6886 98.9365 47.5363C98.2525 47.3839 98.0623 47.0426 98.024 46.2445C97.9486 44.2302 97.9486 39.9745 97.9486 37.0868C97.9486 36.2888 98.1763 35.9088 98.404 35.6806C99.2782 34.9209 100.684 34.3889 101.938 34.3889C103.154 34.3889 103.952 34.769 104.56 35.2631C105.396 35.9466 105.662 36.9349 105.776 37.6567C105.966 39.2906 105.89 42.5205 105.89 45.3325C105.89 46.8523 105.776 47.2324 105.206 47.4222C104.94 47.5363 104.256 47.6886 103.458 47.764C103.192 48.0304 103.268 49.2085 103.458 49.4745C104.56 49.4745 105.852 49.3604 107.752 49.3604C110.108 49.3604 111.628 49.4745 112.236 49.4745C112.426 49.2463 112.502 48.1444 112.35 47.8402ZM122.875 33.3253C120.862 33.3253 119.608 34.883 119.608 37.3145C119.608 39.7847 120.71 42.6346 123.825 42.6346C124.357 42.6346 125.346 42.4065 125.801 41.8745C126.523 41.1909 127.017 39.8226 127.017 38.3785C127.017 35.2248 125.459 33.3253 122.875 33.3253ZM122.609 50.1201C121.85 50.1201 121.317 50.3482 120.976 50.5385C119.38 51.5638 118.658 52.552 118.658 53.7305C118.658 54.832 119.076 55.7057 119.988 56.4659C121.09 57.4158 122.609 57.8721 124.547 57.8721C128.423 57.8721 130.133 55.7819 130.133 53.7305C130.133 52.286 129.411 51.3361 127.929 50.8045C126.865 50.3482 124.928 50.1201 122.609 50.1201ZM122.875 60.0001C120.558 60.0001 118.885 59.506 117.442 58.4041C116.036 57.3401 115.428 55.744 115.428 54.6422C115.428 54.3383 115.504 53.502 116.188 52.7423C116.605 52.286 117.518 51.4122 119.684 49.9303C119.76 49.8924 119.797 49.8545 119.797 49.7779C119.797 49.7022 119.721 49.626 119.646 49.5885C117.86 48.9046 117.328 47.8023 117.175 47.1945V47.1183C117.138 46.8902 117.062 46.6625 117.404 46.4344C117.67 46.2445 118.05 46.0164 118.467 45.7508C119.114 45.3704 119.797 44.9524 120.215 44.6102C120.292 44.5345 120.292 44.4587 120.292 44.3825C120.292 44.3064 120.215 44.2302 120.139 44.1927C117.48 43.3185 116.15 41.3424 116.15 38.3785C116.15 36.4408 117.024 34.6928 118.582 33.5909C119.646 32.755 122.306 31.7289 124.054 31.7289H124.168C125.953 31.7668 126.941 32.1468 128.347 32.641C129.107 32.907 129.829 33.0206 130.818 33.0206C132.299 33.0206 132.945 32.5648 133.477 32.0332C133.515 32.109 133.591 32.2992 133.629 32.7929C133.667 33.287 133.515 34.0088 133.135 34.5409C132.831 34.9588 132.147 35.2631 131.463 35.2631H131.273C130.589 35.1869 130.285 35.1107 130.285 35.1107L130.133 35.1869C130.095 35.2631 130.133 35.3389 130.171 35.4529L130.209 35.5291C130.285 35.8709 130.437 36.8966 130.437 37.163C130.437 40.2788 129.183 41.6463 127.853 42.6725C126.561 43.6224 125.08 44.2302 123.407 44.3825C123.37 44.3825 123.218 44.3825 122.875 44.4204C122.686 44.4204 122.42 44.4587 122.381 44.4587H122.343C122.04 44.5345 121.28 44.9145 121.28 45.5602C121.28 46.1301 121.622 46.8144 123.256 46.9285C123.597 46.9664 123.939 46.9664 124.32 47.0047C126.485 47.1562 129.183 47.3464 130.437 47.7644C132.185 48.41 133.287 49.9682 133.287 51.8302C133.287 54.6426 131.273 57.2643 127.929 58.8978C126.296 59.62 124.661 60.0001 122.875 60.0001ZM144.534 33.5151C143.737 33.5151 143.015 33.7046 142.483 34.0846C141.001 34.9967 140.241 36.8208 140.241 39.4804C140.241 44.4587 142.749 47.9546 146.321 47.9546C147.385 47.9546 148.221 47.6503 148.942 47.0426C150.044 46.1301 150.615 44.3064 150.615 41.7604C150.615 36.8208 148.144 33.5147 144.535 33.5147L144.534 33.5151ZM145.219 49.7783C138.759 49.7783 136.441 45.0286 136.441 40.5827C136.441 37.4669 137.695 35.0729 140.203 33.3628C141.989 32.2609 144.117 31.6531 146.017 31.6531C150.956 31.6531 154.414 35.1869 154.414 40.2788C154.414 43.7365 153.047 46.4723 150.424 48.1444C149.171 48.9803 147.005 49.7783 145.218 49.7783H145.219ZM77.5052 33.5147C76.7071 33.5147 75.9853 33.7046 75.4529 34.0846C73.9714 34.9967 73.2112 36.8208 73.2112 39.4804C73.2112 44.4587 75.7189 47.9546 79.291 47.9546C80.355 47.9546 81.1909 47.6503 81.9131 47.0426C83.0146 46.1301 83.5849 44.3064 83.5849 41.7604C83.5849 36.8208 81.153 33.5147 77.5052 33.5147ZM78.1891 49.7783C71.7293 49.7783 69.4114 45.0286 69.4114 40.5827C69.4114 37.4669 70.6653 35.0729 73.1729 33.3628C74.9592 32.2609 77.0872 31.6531 78.9871 31.6531C83.9271 31.6531 87.3847 35.1869 87.3847 40.2788C87.3847 43.7365 86.0168 46.4723 83.3947 48.1444C82.1787 48.9803 80.0128 49.7783 78.1891 49.7783ZM34.7566 49.3983C34.6804 49.2846 34.6042 48.9425 34.6425 48.5245C34.6425 48.2202 34.7187 48.0304 34.7566 47.9546C35.5546 47.8402 35.9726 47.7261 36.4284 47.6124C37.1885 47.4222 37.4924 47.0047 37.5303 46.0547C37.6447 43.7748 37.6447 39.4425 37.6065 36.4408V36.3646C37.6065 36.0228 37.6065 35.6045 37.1885 35.3006C36.5803 34.9209 35.8585 34.5791 34.9085 34.3123C34.5668 34.1991 34.3387 34.0088 34.3765 33.7811C34.3765 33.553 34.6047 33.287 35.0988 33.2108C36.3526 33.0968 39.62 32.2992 40.9121 31.7289C40.9883 31.8047 41.1024 32.0332 41.1024 32.3371L41.0645 32.7546C41.0262 33.173 40.9883 33.6671 40.9883 34.1608C40.9883 34.3127 41.1407 34.4268 41.2922 34.4268C41.3684 34.4268 41.4445 34.3889 41.5203 34.3506C43.9522 32.4507 46.156 31.7668 47.2958 31.7668C49.1582 31.7668 50.6023 32.641 51.7042 34.4647C51.7799 34.5792 51.8561 34.617 51.9702 34.617C52.0459 34.617 52.1596 34.5792 52.1979 34.503C54.44 32.7929 56.682 31.7668 58.1636 31.7668C61.6974 31.7668 63.7875 34.3889 63.7875 38.8348C63.7875 40.0886 63.7875 41.7225 63.7496 43.2049C63.7496 44.5345 63.7117 45.7504 63.7117 46.6246C63.7117 46.814 63.9773 47.4222 64.3953 47.5363C64.9273 47.8023 65.6495 47.9163 66.5995 48.0683H66.6374C66.7135 48.3343 66.5616 49.3221 66.4096 49.5123C66.1815 49.5123 65.8393 49.5123 65.4597 49.4745C64.4978 49.4243 63.5348 49.3989 62.5716 49.3983C60.2158 49.3983 58.9999 49.4362 57.8214 49.5123C57.746 49.2085 57.7077 48.2964 57.8214 48.0683C58.5058 47.9546 58.8475 47.8402 59.2659 47.7265C60.026 47.4984 60.2158 47.1562 60.2541 46.1684C60.2541 45.4465 60.4057 39.2906 60.1775 37.8087C59.9498 36.2888 58.8096 34.503 56.3016 34.503C55.3516 34.503 53.8701 34.883 52.426 35.9845C52.3502 36.0607 52.2736 36.2505 52.2736 36.3646V36.4029C52.426 37.2005 52.426 38.1129 52.426 39.5187V41.9885C52.426 43.6986 52.3877 45.2946 52.426 46.5101C52.426 47.3464 52.9201 47.5363 53.3381 47.6886C53.5662 47.7261 53.7177 47.7644 53.9079 47.8023C54.2497 47.8784 54.5919 47.9546 55.1239 48.0683C55.2001 48.2206 55.2001 48.7143 55.086 49.1323C55.0477 49.3604 54.9715 49.474 54.9337 49.5123C53.6419 49.4745 52.3119 49.4362 50.3742 49.4362C49.8043 49.4362 48.816 49.4745 47.9801 49.4745C47.2958 49.4745 46.6501 49.5123 46.2705 49.5123C46.2322 49.4362 46.156 49.1706 46.156 48.7522C46.156 48.4105 46.2322 48.1444 46.3084 48.0683C46.4982 48.0304 46.6501 47.9925 46.8404 47.9925C47.2958 47.9163 47.6762 47.8401 48.0559 47.7644C48.7024 47.5746 48.9301 47.2324 48.968 46.3965C49.082 44.4966 49.1961 39.0629 48.9301 37.6946C48.4743 35.4908 47.2204 34.3889 45.206 34.3889C44.0284 34.3889 42.546 34.9588 41.3305 35.8713C41.1402 36.0228 40.9883 36.4025 40.9883 36.7446V38.9867C40.9883 41.7225 40.9883 45.1427 41.0262 46.6246C41.0645 47.08 41.216 47.6124 42.0902 47.8023C42.2804 47.8402 42.5843 47.9163 42.9644 47.9546L43.6479 48.0683C43.7245 48.2964 43.6862 49.2085 43.5343 49.5123C43.1542 49.5123 42.6984 49.4745 42.166 49.4745C41.1789 49.4254 40.1908 49.4 39.2025 49.3983C37.8725 49.3983 36.9225 49.4362 36.1624 49.4745C35.6304 49.3983 35.2124 49.3983 34.7566 49.3983Z" fill="#442D22"/>
<path fill-rule="evenodd" clip-rule="evenodd" d="M14.7689 58.5179L13.2112 57.9854C13.2112 57.9854 13.4014 50.0441 10.5512 49.4742C8.65168 47.27 10.8559 -44.0026 17.6953 49.1699C17.6953 49.1699 15.3392 50.3475 14.9213 52.3619C14.465 54.338 14.7689 58.5179 14.7689 58.5179Z" fill="white"/>
<path fill-rule="evenodd" clip-rule="evenodd" d="M14.7689 58.5179L13.2112 57.9854C13.2112 57.9854 13.4014 50.0441 10.5512 49.4742C8.65168 47.27 10.8559 -44.0026 17.6953 49.1699C17.6953 49.1699 15.3392 50.3475 14.9213 52.3619C14.465 54.338 14.7689 58.5179 14.7689 58.5179Z" fill="#A6A385"/>
<path fill-rule="evenodd" clip-rule="evenodd" d="M15.6052 50.8423C15.6052 50.8423 29.2471 41.8744 26.0546 23.2167C22.9771 9.65184 15.7193 5.20598 14.9213 3.4959C14.0475 2.27995 13.2112 0.152344 13.2112 0.152344L13.7815 37.8843C13.7815 37.9226 12.6034 49.4361 15.6056 50.8427" fill="white"/>
<path fill-rule="evenodd" clip-rule="evenodd" d="M15.6052 50.8423C15.6052 50.8423 29.2471 41.8744 26.0546 23.2167C22.9771 9.65184 15.7193 5.20598 14.9213 3.4959C14.0475 2.27995 13.2112 0.152344 13.2112 0.152344L13.7815 37.8843C13.7815 37.9226 12.6034 49.4361 15.6056 50.8427" fill="#499D4A"/>
<path fill-rule="evenodd" clip-rule="evenodd" d="M12.4136 51.336C12.4136 51.336 -0.392371 42.5962 0.367753 27.2072C1.08958 11.8178 10.1333 4.25604 11.8812 2.88814C13.0214 1.67219 13.0593 1.21595 13.1355 0C13.9335 1.71007 13.7815 25.5733 13.8952 28.3848C14.2369 39.2143 13.2874 49.2846 12.4136 51.336Z" fill="white"/>
<path fill-rule="evenodd" clip-rule="evenodd" d="M12.4136 51.336C12.4136 51.336 -0.392371 42.5962 0.367753 27.2072C1.08958 11.8178 10.1333 4.25604 11.8812 2.88814C13.0214 1.67219 13.0593 1.21595 13.1355 0C13.9335 1.71007 13.7815 25.5733 13.8952 28.3848C14.2369 39.2143 13.2874 49.2846 12.4136 51.336Z" fill="#58AA50"/>
</svg>
