<svg width="214" height="60" viewBox="0 0 214 60" fill="none" xmlns="http://www.w3.org/2000/svg">
<path d="M196.373 21.2909C195.856 21.2909 195.353 21.3977 194.908 21.6496L180.821 29.7847C179.909 30.3097 179.355 31.302 179.355 32.357V48.598C179.355 49.6526 179.909 50.6432 180.821 51.1699L184.5 53.2899C186.287 54.1711 186.946 54.157 187.76 54.157C190.406 54.157 191.917 52.5512 191.917 49.7603V33.7375C191.917 33.5109 191.721 33.3488 191.498 33.3488H189.734C189.507 33.3488 189.315 33.5151 189.315 33.7375V49.7686C189.315 51.0057 188.026 52.2502 185.935 51.2044L182.111 48.9613C181.976 48.8877 181.872 48.7535 181.872 48.6026V32.3616C181.872 32.2077 181.975 32.0506 182.111 31.9729L196.168 23.8669C196.3 23.7913 196.457 23.7913 196.587 23.8669L210.644 31.9729C210.778 32.0531 210.884 32.2028 210.884 32.3616V48.6026C210.884 48.7576 210.806 48.9164 210.674 48.9912L196.587 57.0972C196.463 57.1691 196.296 57.1691 196.169 57.0972L192.55 54.9439C192.442 54.8807 192.295 54.8857 192.191 54.9439C191.192 55.5101 191.004 55.5758 190.068 55.9008C189.837 55.9811 189.486 56.1062 190.187 56.4994L194.913 59.2845C195.363 59.5448 195.864 59.6732 196.379 59.6732C196.9 59.6732 197.394 59.5485 197.844 59.2845L211.931 51.1786C212.843 50.6482 213.397 49.6613 213.397 48.6067V32.3657C213.397 31.3107 212.843 30.3205 211.931 29.7934L197.844 21.6584C197.403 21.4065 196.897 21.2996 196.379 21.2996L196.373 21.2909ZM200.142 32.8961C196.131 32.8961 193.742 34.6034 193.742 37.4421C193.742 40.5182 196.113 41.3679 199.963 41.7487C204.569 42.1997 204.928 42.876 204.928 43.7826C204.928 45.3552 203.674 46.0257 200.711 46.0257C196.988 46.0257 196.169 45.0962 195.895 43.2406C195.863 43.0419 195.71 42.8818 195.507 42.8818H193.678C193.567 42.8843 193.462 42.9292 193.384 43.0071C193.306 43.0851 193.261 43.1902 193.259 43.3004C193.259 45.6711 194.548 48.4745 200.706 48.4745C205.164 48.4745 207.735 46.7286 207.735 43.6592C207.735 40.6246 205.658 39.8045 201.335 39.2321C196.97 38.6501 196.549 38.3716 196.549 37.3478C196.549 36.5031 196.903 35.3732 200.138 35.3732C203.029 35.3732 204.097 35.9968 204.535 37.9455C204.573 38.1284 204.735 38.2781 204.924 38.2781H206.753C206.865 38.2781 206.974 38.2091 207.052 38.1284C207.128 38.0424 207.183 37.9455 207.172 37.8291C206.889 34.4728 204.651 32.894 200.143 32.894L200.142 32.8961Z" fill="#83CD29"/>
<path d="M113.555 0.000543666C113.398 0.000827765 113.243 0.0420879 113.107 0.120262C112.971 0.199772 112.858 0.313309 112.779 0.449689C112.701 0.586069 112.659 0.740587 112.658 0.898018V23.7784C112.658 24.0029 112.553 24.2041 112.359 24.3167C112.263 24.3723 112.155 24.4016 112.045 24.4016C111.934 24.4016 111.826 24.3723 111.731 24.3167L107.992 22.1635C107.719 22.0057 107.41 21.9226 107.095 21.9226C106.78 21.9226 106.47 22.0057 106.197 22.1635L91.2733 30.777C90.7154 31.0987 90.3754 31.7181 90.3754 32.362V49.5895C90.3749 49.9047 90.4577 50.2145 90.6153 50.4875C90.7728 50.7606 90.9997 50.9872 91.2729 51.1446L106.197 59.7585C106.47 59.9167 106.78 60 107.095 60C107.41 60 107.719 59.9167 107.992 59.7585L122.916 51.1446C123.19 50.9872 123.416 50.7606 123.574 50.4875C123.732 50.2145 123.814 49.9047 123.814 49.5895V6.64036C123.814 5.9869 123.457 5.37375 122.887 5.05533L114.004 0.089917C113.864 0.012183 113.71 -0.00111909 113.555 0.000543666ZM17.5473 21.505C17.2626 21.5167 16.9953 21.5661 16.7396 21.7145L1.81552 30.328C1.54213 30.4851 1.31514 30.7117 1.1576 30.9848C1.00005 31.2579 0.91755 31.5678 0.918465 31.8831L0.94881 55.0034C0.94881 55.3251 1.11509 55.6236 1.39776 55.7807C1.67502 55.947 2.0188 55.947 2.29481 55.7807L11.1478 50.696C11.7089 50.3635 12.0748 49.7832 12.0748 49.1413V38.3438C12.0748 37.6995 12.4135 37.1092 12.9726 36.7891L16.7413 34.6059C17.0136 34.4475 17.3233 34.3649 17.6384 34.3665C17.9535 34.3646 18.2635 34.4473 18.5358 34.6059L22.3028 36.7879C22.8611 37.1079 23.1999 37.6991 23.1999 38.3425V49.1397C23.1999 49.7823 23.574 50.366 24.1269 50.6944L32.9798 55.7791C33.2583 55.9454 33.6013 55.9454 33.8769 55.7791C34.1512 55.6211 34.3258 55.3231 34.3258 55.0017L34.3557 31.8823C34.3575 31.5668 34.2754 31.2566 34.1177 30.9833C33.9601 30.7101 33.7327 30.4836 33.4587 30.3272L18.5346 21.7141C18.2823 21.5661 18.0137 21.5162 17.7269 21.5046H17.5481L17.5473 21.505ZM151.659 21.7145C151.344 21.7137 151.034 21.7963 150.761 21.954L135.837 30.5679C135.28 30.8901 134.939 31.4791 134.939 32.1226V49.35C134.939 49.9977 135.304 50.5846 135.866 50.9047L150.671 59.3432C151.217 59.655 151.885 59.6787 152.435 59.3723L161.408 54.3774C161.693 54.2194 161.885 53.9243 161.886 53.6C161.887 53.2758 161.719 52.984 161.437 52.8227L146.422 44.2088C146.141 44.0483 145.944 43.7237 145.944 43.4011V38.0142C145.944 37.6924 146.144 37.3973 146.422 37.2368L151.088 34.5448C151.366 34.3843 151.707 34.3843 151.986 34.5448L156.654 37.2368C156.791 37.3153 156.904 37.4286 156.983 37.5651C157.062 37.7016 157.103 37.8565 157.102 38.0142V42.2613C157.102 42.4189 157.143 42.5738 157.222 42.7103C157.301 42.8468 157.414 42.9601 157.551 43.0386C157.831 43.1999 158.169 43.2007 158.449 43.0386L167.391 37.8354C167.946 37.5128 168.289 36.9221 168.289 36.2807V32.1238C168.289 31.8087 168.206 31.499 168.049 31.2261C167.891 30.9531 167.664 30.7264 167.392 30.5687L152.557 21.9548C152.284 21.7969 151.974 21.7143 151.659 21.7154L151.659 21.7145ZM107.035 34.576C107.118 34.5756 107.2 34.596 107.274 34.6354L112.388 37.5964C112.527 37.6766 112.628 37.825 112.628 37.9851V43.907C112.628 44.0678 112.528 44.2158 112.388 44.2956L107.274 47.2566C107.135 47.3356 106.965 47.3356 106.825 47.2566L101.711 44.2956C101.572 44.2154 101.471 44.067 101.471 43.907V37.9842C101.471 37.8238 101.572 37.6766 101.711 37.5956L106.825 34.635C106.895 34.5947 106.956 34.576 107.035 34.576Z" fill="#404137"/>
<path d="M62.3812 21.6243C62.0661 21.6238 61.7564 21.7064 61.4833 21.8638L46.5588 30.4478C46.001 30.7695 45.6617 31.3893 45.6617 32.0328V49.2602C45.6609 49.5755 45.7434 49.8853 45.901 50.1583C46.0585 50.4314 46.2855 50.6579 46.5588 50.8149L61.4833 59.4288C61.7559 59.587 62.0654 59.6704 62.3806 59.6704C62.6957 59.6704 63.0053 59.587 63.2779 59.4288L78.2024 50.8149C78.4756 50.6576 78.7024 50.431 78.86 50.1579C79.0176 49.8849 79.1003 49.5751 79.0999 49.2598V32.0324C79.0999 31.3881 78.7607 30.7687 78.202 30.4474L63.2774 21.8634C63.0047 21.7052 62.6948 21.6226 62.3796 21.6239L62.3812 21.6243ZM151.63 36.9978C151.57 36.9978 151.504 36.9978 151.45 37.0269L148.579 38.7021C148.526 38.7318 148.481 38.7751 148.449 38.8275C148.418 38.88 148.401 38.9398 148.4 39.001V42.2912C148.4 42.4151 148.471 42.5281 148.579 42.5905L151.45 44.2354C151.5 44.2659 151.556 44.2821 151.615 44.2821C151.673 44.2821 151.729 44.2659 151.779 44.2354L154.65 42.5905C154.756 42.5294 154.829 42.4151 154.829 42.2912V39.001C154.829 38.8771 154.757 38.7641 154.65 38.7017L151.779 37.0265C151.725 36.9949 151.689 36.9974 151.629 36.9974L151.63 36.9978Z" fill="#83CD29"/>
</svg>
