<svg width="91" height="90" viewBox="0 0 91 90" fill="none" xmlns="http://www.w3.org/2000/svg">
<path fill-rule="evenodd" clip-rule="evenodd" d="M45.3767 71.0191C46.6994 72.1129 48.2501 72.5794 49.9241 72.6658C50.6164 72.7019 51.3287 72.668 52.01 72.544C53.0906 72.3476 54.1682 72.1011 55.2192 71.7845C57.3597 71.1386 59.2094 70.0226 60.5904 68.2202C61.3772 67.1928 62.023 66.0819 62.4378 64.8537C62.7803 63.8403 63.1021 62.8166 63.3582 61.7796C63.5605 60.9625 63.6608 60.1188 63.7834 59.284C63.8653 58.7319 63.9148 58.1739 63.9657 57.6167C64.0484 56.7125 64.1347 55.8098 64.1945 54.9034C64.2366 54.2731 64.2351 53.6398 64.2594 53.0087C64.2676 52.8161 64.2986 52.6249 64.317 52.4338C64.3325 52.2559 64.4226 52.1946 64.6041 52.1976C65.2419 52.2072 65.8811 52.2234 66.518 52.1946C67.2318 52.1629 67.9507 52.1319 68.6533 52.0145C69.6533 51.8471 70.6453 51.6353 71.6264 51.3797C72.7837 51.0764 73.8459 50.5339 74.8689 49.9168C76.0587 49.1972 77.1452 48.3535 78.0242 47.2663C78.7911 46.3201 79.1543 45.2233 78.969 44.0268C78.7003 42.2886 77.2396 41.1497 75.5413 41.0722C74.9257 41.0442 74.3013 41.1091 73.6886 41.1866C72.9469 41.2811 72.2161 41.4479 71.4766 41.5579C70.9658 41.6346 70.4484 41.6686 69.9391 41.7217L69.9251 41.6553C70.8772 39.8566 71.8692 38.0785 72.7697 36.2554C73.4613 34.8559 74.0518 33.4071 74.6622 31.9678C75.6734 29.5852 76.4801 27.1295 77.1489 24.6326C77.7888 22.2426 78.3365 19.8268 78.5099 17.3468C78.5793 16.357 78.6273 15.3628 78.6206 14.3715C78.6162 13.5803 78.5306 12.7883 78.4516 12C78.3616 11.0966 78.0885 10.2404 77.7105 9.41666C77.2131 8.33018 76.4403 7.43929 75.6276 6.59343C74.9774 5.91586 74.2614 5.29881 73.5521 4.68176C72.5402 3.80194 71.402 3.09854 70.2211 2.47484C68.8824 1.76379 67.4642 1.21377 65.9962 0.836265C65.1017 0.610716 64.2014 0.408654 63.2962 0.230286C62.9744 0.165334 62.6497 0 62.3256 0H56.223C56.0023 0 55.7839 0.144667 55.5617 0.169025C54.1012 0.328442 52.6591 0.626249 51.2549 1.05843C50.7309 1.22008 50.2526 1.1256 49.7543 1.0791C49.372 1.04367 48.9963 0.945504 48.614 0.926313C47.1592 0.85398 45.7029 0.749169 44.2474 0.76467C42.8539 0.779431 41.4744 1.00972 40.1259 1.39205C38.9973 1.71386 37.8924 2.10432 36.8797 2.69849C36.4472 2.95239 36.1032 2.90442 35.6552 2.77599C34.1505 2.33519 32.6328 1.94037 31.1041 1.59208C30.1512 1.37877 29.1703 1.271 28.1967 1.17062C27.2624 1.07358 26.3244 1.01522 25.3853 0.995694C24.4686 0.975766 23.546 0.976504 22.6329 1.05769C21.1796 1.18686 19.7543 1.4821 18.3682 1.95891C16.8402 2.48131 15.4125 3.26034 14.1463 4.26252C12.8546 5.28478 11.8183 6.53143 10.9865 7.9567C10.1089 9.4602 9.50586 11.07 9.13238 12.7595C8.9294 13.6755 9.00395 14.6173 8.86445 15.5473C8.82164 15.8352 8.908 16.1245 8.908 16.4138V20.4623C8.908 20.731 8.82902 21.0004 8.86297 21.2705C8.94638 21.9193 8.91759 22.5733 9.02757 23.2176C9.20028 24.2377 9.35602 25.254 9.56564 26.2667C9.85867 27.6816 10.1384 29.0951 10.4632 30.5034C10.6994 31.5286 10.9555 32.5479 11.2367 33.5613C11.6648 35.1099 12.0826 36.6606 12.5675 38.1907C13.0185 39.613 13.5322 41.0146 14.0452 42.417C14.7481 44.3562 15.6096 46.2341 16.6211 48.0317C17.5032 49.5899 18.5092 51.0491 19.8599 52.2485C20.7508 53.0397 21.7406 53.6472 22.8927 53.9513C23.7928 54.1903 24.7361 54.2166 25.6481 54.028C26.7052 53.8132 27.6928 53.3403 28.523 52.6515C28.6204 52.5725 28.7259 52.5113 28.8418 52.6574C29.2802 53.2124 29.8663 53.583 30.4797 53.9026C32.1345 54.7661 33.9376 55.0252 35.7689 55.13C36.2132 55.1551 36.6605 55.0916 37.107 55.0798C37.9787 55.0555 38.8246 54.8857 39.6564 54.6451C40.0934 54.5189 40.5193 54.358 40.9636 54.2089C40.9865 54.682 41.016 55.1367 41.0308 55.5921L41.092 58.0743C41.1038 58.4522 41.1186 58.8301 41.1533 59.2065C41.2433 60.1764 41.3312 61.1463 41.4471 62.1132C41.5268 62.7797 41.6109 63.4506 41.7674 64.1016C42.082 65.4135 42.5122 66.695 43.0532 67.9309C43.571 69.1304 44.3676 70.1891 45.3767 71.0191ZM42.7262 58.6426C42.6738 57.4772 42.6347 56.3111 42.6088 55.1448C42.5778 53.7114 42.5675 52.2773 42.5476 50.8439L42.5439 50.7893C41.8154 51.227 41.0972 51.7052 40.3377 52.1001C39.4468 52.5629 38.4799 52.8309 37.4783 52.9069C36.6937 52.9659 35.8973 53.0198 35.1164 52.9578C33.835 52.8537 32.5537 52.6537 31.4067 52.0219C30.9417 51.7658 30.456 51.4536 30.135 51.0454C29.3666 50.0645 29.7349 48.8252 30.8937 48.2288C31.6946 47.8155 32.5685 47.6435 33.4365 47.4427C34.192 47.2714 34.9397 47.067 35.6773 46.8301C36.4051 46.5917 36.8642 46.0012 37.3181 45.4218L38.037 44.4977L37.1727 44.4077C36.3151 44.328 35.4965 44.091 34.7141 43.7441C34.0454 43.4481 34.0351 43.4157 33.5435 43.9486C32.7242 44.838 31.9271 45.7495 31.1233 46.6544C30.5321 47.3202 29.9453 47.9897 29.3555 48.6576C28.7739 49.3182 28.2277 50.0157 27.5996 50.6298C26.6681 51.5421 25.5447 52.0905 24.2043 52.0285C23.3445 51.9887 22.5576 51.6875 21.8491 51.1952C20.3884 50.1781 19.4045 48.7536 18.5077 47.2589C17.36 45.3428 16.4779 43.302 15.7243 41.2058C15.2025 39.7562 14.6777 38.3058 14.223 36.8355C13.7278 35.2375 13.293 33.6211 12.8657 32.0032C12.5424 30.7831 12.256 29.5527 11.9829 28.3201C11.6685 26.919 11.3777 25.5127 11.1105 24.1019C10.9326 23.149 10.83 22.1821 10.6861 21.2233C10.492 19.9294 10.4565 18.6252 10.5274 17.3269C10.5901 16.157 10.7577 14.9908 10.9245 13.829C11.1555 12.2214 11.6855 10.7046 12.4472 9.27199C12.9171 8.39897 13.4929 7.58731 14.1618 6.85546C15.2615 5.63833 16.5923 4.75926 18.073 4.09866C19.107 3.63735 20.2002 3.36056 21.3139 3.14282C22.9673 2.82101 24.6354 2.8343 26.3035 2.86825C27.0327 2.88375 27.7598 3.01587 28.4883 3.08894C30.0575 3.24468 31.5949 3.57535 33.1132 3.98204C34.2203 4.27876 35.3046 4.66404 36.4014 4.99766C36.5107 5.03088 36.6723 5.02792 36.7631 4.96961C38.2503 3.99828 39.8749 3.35761 41.6043 2.99077C42.2604 2.85201 42.938 2.79075 43.6089 2.74794C44.4238 2.69701 45.2468 2.6483 46.0602 2.69627C47.0381 2.75237 48.0132 2.8963 48.9852 3.02915C49.4576 3.09411 49.9182 3.25723 50.3906 3.30151C50.6179 3.32292 50.8578 3.15832 51.0969 3.10223C52.3178 2.81953 53.5334 2.50584 54.7653 2.28368C55.682 2.11834 56.6194 2.0401 57.5509 1.98696C58.5916 1.92717 59.6382 1.88363 60.6775 1.93382C61.9913 1.99729 63.2955 2.18403 64.5827 2.4837C66.1785 2.85496 67.7078 3.39378 69.1626 4.14221C70.2499 4.70242 71.2824 5.35047 72.2132 6.14762C72.8229 6.67093 73.4473 7.18686 73.9972 7.76996C74.6762 8.48887 75.3686 9.20704 75.7952 10.1274C76.1163 10.822 76.3451 11.5409 76.4085 12.3004C76.4868 13.2459 76.582 14.1944 76.5739 15.1413C76.5658 16.0463 76.4418 16.9504 76.3547 17.8539C76.1546 19.9117 75.7081 21.9252 75.1641 23.9122C74.7102 25.5534 74.1959 27.1773 73.6222 28.7807C73.0989 30.2591 72.4944 31.7102 71.884 33.1561C71.4341 34.2267 70.9456 35.2806 70.4196 36.3159C69.4202 38.2733 68.381 40.2108 67.1786 42.0561C66.9712 42.3742 66.7741 42.7005 66.5719 43.026C67.0967 43.3795 67.6909 43.5042 68.2887 43.5692C68.8578 43.6305 69.4379 43.6681 70.0063 43.6253C70.9164 43.5574 71.8235 43.4275 72.7284 43.3013C73.6244 43.1758 74.502 42.9211 75.4232 42.9883C76.3414 43.0555 76.9998 43.7537 76.937 44.6143C76.8972 45.1591 76.6469 45.6263 76.2853 46.0256C74.5766 47.9107 72.4317 49.0533 69.9782 49.6164C69.046 49.8305 68.085 49.9405 67.1307 50.0298C66.3157 50.1017 65.4969 50.1209 64.6794 50.0873C64.0801 50.0652 63.4859 49.9279 62.8733 49.8393C62.8113 50.3996 62.753 50.9834 62.6821 51.565L62.3965 53.7963C62.3101 54.5034 62.243 55.2134 62.1537 55.9205C62.0666 56.607 61.9581 57.2897 61.8665 57.9754C61.7817 58.6138 61.7189 59.256 61.623 59.8937C61.4776 60.871 61.3381 61.8504 61.1469 62.8203C60.9181 63.9791 60.5682 65.101 59.9947 66.1469C59.2965 67.423 58.3067 68.3951 57.046 69.1148C55.747 69.8566 54.3261 70.2426 52.8876 70.5659C51.8675 70.7954 50.8187 70.8323 49.7861 70.7386C47.9962 70.5769 46.4683 69.8115 45.3132 68.4232C44.2112 67.0983 43.465 65.5808 43.1986 63.8617C43.0731 63.0438 42.9756 62.2218 42.9063 61.3972C42.8264 60.4804 42.7663 59.562 42.7262 58.6426ZM44.7382 46.867C44.7493 47.4796 44.6858 48.0923 44.6888 48.7049C44.7013 51.5562 44.722 54.4082 44.7464 57.2602C44.7508 57.7259 44.7737 58.1931 44.8069 58.6581C44.877 59.6324 44.9464 60.6075 45.0409 61.5788C45.1088 62.2689 45.201 62.9568 45.3095 63.6418C45.4645 64.6109 45.9059 65.4745 46.4063 66.3004C46.8374 67.0105 47.3991 67.6127 48.1379 68.029C49.3942 68.7354 50.7456 68.7944 52.1081 68.5346C53.0285 68.3597 53.9335 68.077 54.8266 67.7855C55.7056 67.5035 56.5081 67.0235 57.1722 66.3823C57.7989 65.7756 58.2432 65.0353 58.5429 64.2182C59.1238 62.6343 59.3061 60.9654 59.546 59.3106C59.636 58.6906 59.7142 58.0691 59.7962 57.4484C59.8899 56.742 59.9844 56.0364 60.0744 55.33C60.1423 54.803 60.2029 54.2768 60.2671 53.7505C60.3593 52.9947 60.456 52.2396 60.5439 51.4838C60.611 50.8992 60.6671 50.3125 60.7276 49.7264C60.8044 48.9772 60.8863 48.2303 60.9535 47.4796C61.0037 46.9113 60.983 46.3319 61.0842 45.7732C61.2694 44.7494 61.7536 43.8785 62.6615 43.3146C63.0408 43.0798 63.4704 42.9248 63.8911 42.7256L63.8188 42.6156C63.4298 42.1107 63.0312 41.614 62.6497 41.1032C62.0503 40.3016 61.6193 39.4078 61.186 38.5095C60.7756 37.6578 60.2737 36.8518 59.8419 36.0096C59.0883 34.5408 58.3207 33.0757 57.6262 31.5795C56.753 29.6974 56.0651 27.7503 55.8488 25.6659C55.7566 24.7846 55.7329 23.9033 55.9123 23.0301C56.1979 21.6351 56.9257 20.5442 58.1509 19.7958C59.2876 19.102 60.5535 18.8776 61.8503 18.8075C62.6548 18.7639 63.4645 18.7994 64.2993 18.7994L64.272 18.6584C63.7524 17.5719 63.2674 16.467 62.6984 15.4071C61.8968 13.9102 60.8694 12.561 59.7268 11.3084C58.8837 10.3771 57.9572 9.5247 56.9589 8.76196C55.9713 8.01427 54.9306 7.34629 53.8198 6.80084C52.5002 6.14443 51.1065 5.64882 49.6687 5.32464C48.2774 5.01611 46.8787 4.82716 45.4512 4.81166C44.2348 4.79838 43.0258 4.85447 41.8405 5.12831C40.0513 5.54238 38.4149 6.279 36.9926 7.47177C36.2048 8.13212 35.5011 8.88668 34.8972 9.71854C34.1834 10.6965 33.6092 11.755 33.1176 12.8628C32.443 14.3841 31.9802 15.9658 31.6628 17.5926C31.5049 18.4045 31.3809 19.2216 31.2547 20.0386C31.2104 20.3257 31.2074 20.6173 31.1808 20.9457L31.7211 20.6645L32.2481 20.4283C34.0321 19.6127 35.8796 19.088 37.8651 19.1477C38.7094 19.1728 39.5154 19.3404 40.2668 19.7102C41.7061 20.4202 42.5476 21.627 42.9137 23.1534C43.1661 24.2074 43.3395 25.2821 43.5078 26.3545C43.6392 27.1915 43.7743 28.0374 43.789 28.8818C43.8104 30.1159 43.7484 31.3529 43.6813 32.5863C43.6238 33.6351 43.4068 34.669 43.0377 35.6524C42.3704 37.4356 41.6264 39.1901 40.9319 40.963C40.7023 41.549 40.5259 42.155 40.3096 42.7994L41.1865 42.8001C41.2928 42.8023 41.4013 42.8053 41.5039 42.8296C42.3018 43.0178 42.9948 43.3795 43.5624 43.9936C44.3212 44.8085 44.7183 45.7621 44.7382 46.867ZM29.4987 38.4121C29.0465 37.3479 28.7736 36.216 28.6912 35.0626C28.6145 33.9747 28.7436 32.8926 28.8558 31.8091C28.9636 30.7602 29.0551 29.7062 29.0861 28.6537C29.1385 26.9214 29.0219 25.1935 28.9392 23.4627C28.8898 22.4323 29.0094 21.3893 29.1009 20.3567C29.1836 19.4267 29.2869 18.4945 29.4633 17.5778C29.7578 16.0396 30.1497 14.5236 30.707 13.054C31.2347 11.6605 31.8429 10.3046 32.6991 9.08304C33.2874 8.24456 33.9531 7.46291 34.5931 6.64362L34.4026 6.57572C32.319 5.91438 30.2007 5.39624 28.021 5.17112C26.9914 5.06409 25.9573 5.00209 24.9247 4.94009C24.6073 4.92164 24.2855 4.96445 23.9674 4.99471C23.1799 5.07073 22.382 5.10026 21.607 5.24788C20.288 5.49883 19.0222 5.92102 17.8508 6.60819C16.8142 7.21818 15.9053 8.02298 15.1745 8.97823C14.3574 10.0344 13.806 11.2287 13.4111 12.5012C12.9447 14.0032 12.7218 15.5495 12.662 17.1091C12.6096 18.4768 12.5837 19.8519 12.8199 21.2144C12.9948 22.2278 13.1122 23.253 13.3056 24.2635C13.5656 25.6412 13.8574 27.0127 14.181 28.3769C14.6482 30.3285 15.1161 32.2815 15.6705 34.2094C16.2004 36.0554 16.7975 37.8851 17.4471 39.6934C17.977 41.1689 18.5904 42.617 19.2362 44.0453C19.6569 44.976 20.1662 45.8721 20.7006 46.743C21.2682 47.6686 21.9148 48.5469 22.7901 49.2186C23.8966 50.0659 24.752 50.1981 25.8769 49.2673C26.3581 48.8695 26.7648 48.3764 27.184 47.9077C27.8491 47.1637 28.4912 46.3976 29.154 45.6499C29.9977 44.6985 30.8517 43.7567 31.6997 42.8082C31.8791 42.6082 32.0525 42.4015 32.2267 42.1993L31.9367 41.9461C30.891 40.9472 30.0612 39.7444 29.4987 38.4121ZM61.4886 10.0669C62.1823 10.8727 62.8403 11.7086 63.4608 12.572C64.6501 14.2397 65.6073 16.0613 66.3062 17.9867C66.6162 18.8392 66.8642 19.6998 66.7535 20.6321C66.6767 21.2853 66.6819 21.9473 66.6251 22.6043C66.5771 23.1504 66.49 23.6937 66.4199 24.2384C66.3136 25.0592 66.16 25.8785 66.1143 26.7029C66.07 27.4883 66.1165 28.281 66.166 29.067C66.2154 29.8664 66.3232 30.6621 66.3962 31.4592C66.4789 32.3649 66.5911 33.2683 66.6162 34.1754C66.6369 34.9194 66.5704 35.6671 66.5062 36.4111C66.4237 37.3026 66.2072 38.1764 65.8641 39.0033C65.6257 39.5894 65.3415 40.1562 65.0736 40.7423L65.1813 40.8559L65.3452 40.9829L65.5113 40.6877C66.9051 38.4946 68.1434 36.2066 69.2173 33.8403C69.9057 32.313 70.5589 30.7699 71.1762 29.2124C72.1386 26.7913 72.9161 24.3008 73.5019 21.7621C73.7676 20.6225 73.9713 19.4651 74.1514 18.3078C74.2924 17.4029 74.409 16.4876 74.4356 15.5746C74.4629 14.6062 74.4098 13.6305 74.3205 12.665C74.2533 11.9358 74.0732 11.2021 73.6171 10.6079C72.8819 9.65359 72.0892 8.7413 71.1142 8.0187C70.2927 7.41124 69.4734 6.78607 68.5928 6.27531C67.1956 5.46414 65.6832 4.92533 64.103 4.55776C62.5596 4.1983 60.9978 4.0433 59.4256 4.01009C58.4986 3.99016 57.5671 4.0898 56.6423 4.17764C55.8038 4.25587 54.9705 4.39021 54.1268 4.50092C55.0325 5.01021 55.9263 5.4634 56.7678 5.99705C58.5392 7.11896 60.1276 8.46894 61.4886 10.0669ZM38.4747 41.4826C39.0468 39.6521 39.8269 37.9028 40.582 36.1447C41.1954 34.7179 41.5297 33.2159 41.6412 31.6718C41.6965 30.9108 41.6818 30.1402 41.6441 29.377C41.6074 28.5279 41.5296 27.6811 41.4109 26.8395C41.2522 25.7663 41.0721 24.6923 40.8182 23.6391C40.5429 22.4994 39.8491 21.7053 38.6593 21.4122C37.9352 21.2343 37.2148 21.2417 36.4819 21.3576C34.6935 21.6388 33.0564 22.2979 31.5314 23.2634C31.2244 23.4575 31.0546 23.6147 31.1085 24.0539C31.2207 24.9868 31.2451 25.9346 31.2406 26.8756C31.2347 28.2079 31.1779 29.5402 31.1277 30.8717C31.1115 31.305 31.0487 31.7375 31.0015 32.1693C30.9306 32.8306 30.7926 33.4912 30.797 34.1518C30.8015 34.8323 30.8708 35.5284 31.0362 36.1875C31.561 38.2778 32.6711 39.9872 34.492 41.194C35.6116 41.9365 36.8502 42.31 38.2105 42.3816C38.3005 42.0694 38.3839 41.7749 38.4747 41.4826ZM36.3372 23.5549C36.0973 23.0523 36.2346 22.6353 36.7897 22.4419C36.9255 22.3954 37.0642 22.3437 37.2045 22.3304C37.3986 22.3112 37.5942 22.3253 37.7898 22.3253C38.4947 22.3297 39.1722 22.4279 39.7531 22.8751C40.1266 23.163 40.227 23.5431 39.9849 23.9358C39.6417 24.4916 39.1198 24.7706 38.4777 24.8237C37.4672 24.9071 36.7579 24.4362 36.3372 23.5549ZM64.3665 23.3711L64.596 21.3598C64.6292 21.0912 64.4883 21.0173 64.2624 21.0107C63.5516 20.9915 62.8416 20.9657 62.1308 20.9539C61.3307 20.9391 60.5505 21.0675 59.8095 21.3716C58.9872 21.7104 58.3613 22.2522 58.1052 23.1475C57.9178 23.8072 57.8586 24.4967 57.931 25.1787C58.0309 26.234 58.2699 27.2714 58.6418 28.264C59.1393 29.5874 59.6589 30.9101 60.2811 32.1781C61.1233 33.8942 62.0754 35.5564 62.97 37.2466C63.2084 37.6976 63.4106 38.1693 63.6594 38.6955C64.1617 37.6486 64.4359 36.5069 64.4639 35.346C64.4883 34.3858 64.4122 33.4233 64.3561 32.463C64.3214 31.8755 64.238 31.2909 64.1812 30.7049C64.1022 29.8885 63.9812 29.0715 63.962 28.2529C63.9435 27.4203 64.0026 26.5833 64.0734 25.7515C64.1399 24.9558 64.2713 24.1653 64.3665 23.3711ZM62.7655 22.726C62.5013 23.4545 61.9374 23.8664 61.2052 23.9867C60.5232 24.0996 59.9253 23.8479 59.481 23.3032C59.1644 22.9157 59.2854 22.4574 59.76 22.1946C60.3047 21.8935 60.9033 21.8174 61.6097 21.7717C61.8023 21.8064 62.0902 21.8366 62.3648 21.9141C62.7626 22.0263 62.9102 22.3275 62.7655 22.726ZM41.6574 45.1664C41.2677 44.8476 40.751 44.8291 40.3805 45.179C39.9199 45.6145 39.5147 46.1119 39.1095 46.602C38.6423 47.1689 38.2024 47.7579 37.6001 48.1971C36.7225 48.8355 35.6973 49.0998 34.6684 49.35C33.8505 49.5493 33.0283 49.7345 32.2083 49.925L32.1979 50.0312C32.4415 50.1434 32.677 50.2844 32.9316 50.3649C34.1827 50.7605 35.4559 50.9583 36.7786 50.8461C37.7322 50.7642 38.6415 50.556 39.5029 50.1479C40.689 49.5862 41.6021 48.6953 42.3778 47.6605C42.5077 47.4878 42.5667 47.2324 42.5815 47.0095C42.6339 46.2227 42.2346 45.6373 41.6574 45.1664ZM64.4979 44.8254C63.8845 45.0314 63.3855 45.3451 63.2372 46.0086C63.1361 46.4574 63.0992 46.9216 63.06 47.3815C63.0527 47.4627 63.1538 47.6118 63.2305 47.6324C63.7029 47.7572 64.1783 47.904 64.661 47.9476C65.2551 48.0015 65.8589 47.9845 66.4568 47.955C67.1019 47.9225 67.7514 47.8804 68.3876 47.7741C69.8852 47.5217 71.3356 47.1128 72.6228 46.2625C73.0878 45.9562 73.5469 45.6433 74.009 45.3318L73.9706 45.2661C73.4783 45.3392 72.9875 45.4285 72.4929 45.4809C71.4862 45.5886 70.4787 45.7023 69.4682 45.7606C68.9803 45.7887 68.4858 45.6949 67.9942 45.6551C67.169 45.5879 66.363 45.4048 65.6655 44.9635C65.2633 44.7096 64.9267 44.6815 64.4979 44.8254Z" fill="#336791"/>
<path d="M0.666748 73.2076C1.7265 73.0357 2.79872 72.9523 3.87231 72.9582C5.52196 72.9582 6.7317 73.342 7.49932 74.0328C8.20937 74.6469 8.63157 75.5873 8.63157 76.7394C8.63157 77.9101 8.2854 78.8312 7.63292 79.5029C6.75015 80.4432 5.31086 80.923 3.67966 80.923C3.18071 80.923 2.72014 80.9038 2.33706 80.8078V85.99H0.666748V73.2076ZM2.33706 79.4446C2.70168 79.5405 3.16226 79.5789 3.71878 79.5789C5.73305 79.5789 6.96199 78.6002 6.96199 76.8155C6.96199 75.1075 5.75298 74.2823 3.91069 74.2823C3.18145 74.2823 2.62492 74.3399 2.33706 74.4166V79.4446ZM18.745 81.2677C18.745 84.7028 16.3646 86.2004 14.1193 86.2004C11.6054 86.2004 9.66712 84.3581 9.66712 81.4212C9.66712 78.3123 11.7013 76.4892 14.2728 76.4892C16.9411 76.4885 18.745 78.4275 18.745 81.2677ZM11.3758 81.3636C11.3758 83.3978 12.5464 84.9331 14.1968 84.9331C15.8088 84.9331 17.0171 83.417 17.0171 81.3252C17.0171 79.7516 16.231 77.7558 14.2345 77.7558C12.2379 77.7558 11.3758 79.5981 11.3758 81.3636ZM20.6441 84.2614C21.1431 84.5876 22.0258 84.9331 22.8702 84.9331C24.0984 84.9331 24.6741 84.319 24.6741 83.5513C24.6741 82.7453 24.1951 82.304 22.947 81.8434C21.2774 81.2485 20.4906 80.3273 20.4906 79.2143C20.4906 77.7174 21.6996 76.4892 23.6954 76.4892C24.6357 76.4892 25.4617 76.7579 25.9798 77.0649L25.5576 78.2931C24.9865 77.9412 24.3287 77.7551 23.6578 77.7558C22.6599 77.7558 22.1033 78.3315 22.1033 79.0224C22.1033 79.79 22.6606 80.1354 23.8696 80.596C25.4816 81.2101 26.3068 82.0161 26.3068 83.3978C26.3068 85.029 25.0402 86.1805 22.8333 86.1805C21.8162 86.1805 20.8759 85.931 20.2234 85.5472L20.6441 84.2614ZM30.5088 74.0321V76.6996H32.9261V77.9853H30.5088V82.9941C30.5088 84.1455 30.8343 84.798 31.7754 84.798C32.1053 84.8028 32.4343 84.764 32.7541 84.6829L32.8309 85.9494C32.5054 86.0838 31.9865 86.1797 31.3347 86.1797C30.5479 86.1797 29.9139 85.9302 29.5109 85.4697C29.0319 84.9707 28.8584 84.1455 28.8584 83.0517V77.9853H27.4191V76.6996H28.8584V74.4735L30.5088 74.0321ZM42.714 76.7003C42.6749 77.372 42.6372 78.1204 42.6372 79.2527V84.6452C42.6372 86.7754 42.215 88.0803 41.3131 88.8871C40.4111 89.7314 39.1062 90.0001 37.9355 90.0001C36.8225 90.0001 35.5943 89.7314 34.8451 89.2325L35.2673 87.9467C35.8814 88.3305 36.8409 88.676 37.9924 88.676C39.7195 88.676 40.9861 87.774 40.9861 85.4328V84.3965H40.9477C40.4296 85.26 39.4317 85.9509 37.9924 85.9509C35.6895 85.9509 34.0391 83.9935 34.0391 81.4212C34.0391 78.2739 36.0925 76.4892 38.2227 76.4892C39.8354 76.4892 40.7182 77.3336 41.1212 78.1012H41.1596L41.2363 76.7003H42.714ZM40.9676 80.3657C40.9676 80.0779 40.9485 79.8284 40.8717 79.5981C40.5646 78.6194 39.7395 77.8134 38.5113 77.8134C36.8985 77.8134 35.7478 79.1759 35.7478 81.3252C35.7478 83.1483 36.669 84.6644 38.4921 84.6644C39.5284 84.6644 40.4687 84.0119 40.8333 82.9372C40.9293 82.6494 40.9684 82.3231 40.9684 82.0353L40.9676 80.3657ZM45.3232 79.5981C45.3232 78.5042 45.304 77.5639 45.2464 76.7003H46.7248L46.7817 78.5234H46.8584C47.2806 77.276 48.2977 76.4892 49.4299 76.4892C49.6219 76.4892 49.7554 76.5084 49.909 76.5468V78.1396C49.7201 78.0985 49.5272 78.0792 49.334 78.082C48.1442 78.082 47.2991 78.984 47.0695 80.2506C47.0221 80.5103 46.9964 80.7734 46.9927 81.0374V85.9885H45.3232V79.5981ZM52.3476 81.6515C52.386 83.9352 53.8438 84.8755 55.5325 84.8755C56.7423 84.8755 57.4708 84.6644 58.1041 84.3957L58.3919 85.6047C57.797 85.8734 56.7799 86.1805 55.3023 86.1805C52.4429 86.1805 50.7349 84.2998 50.7349 81.498C50.7349 78.6961 52.3853 76.4885 55.0912 76.4885C58.1233 76.4885 58.9293 79.156 58.9293 80.8639C58.9293 81.2094 58.8909 81.478 58.8717 81.6507L52.3476 81.6515ZM57.2988 80.4425C57.3173 79.3678 56.8567 77.6982 54.9576 77.6982C53.2496 77.6982 52.5012 79.2719 52.3661 80.4425H57.2988ZM60.8483 83.9543C61.7531 84.4978 62.7867 84.7893 63.8421 84.7987C65.55 84.7987 66.5479 83.8968 66.5479 82.5918C66.5479 81.3828 65.8571 80.692 64.1107 80.0203C61.9998 79.2719 60.6948 78.178 60.6948 76.3549C60.6948 74.3399 62.3644 72.843 64.8783 72.843C66.2025 72.843 67.162 73.1501 67.7377 73.4763L67.2772 74.8388C66.5222 74.433 65.6779 74.2219 64.8208 74.2247C63.0552 74.2247 62.3836 75.2802 62.3836 76.163C62.3836 77.372 63.1696 77.9669 64.9551 78.6578C67.1428 79.5029 68.2559 80.5576 68.2559 82.4575C68.2559 84.4533 66.7782 86.1805 63.7269 86.1805C62.4795 86.1805 61.117 85.8158 60.4254 85.3553L60.8483 83.9543ZM81.2095 87.8884C79.5412 87.4506 77.8897 86.9513 76.2583 86.3915C75.9897 86.2956 75.721 86.1996 75.4715 86.1996C72.401 86.0845 69.7719 83.82 69.7719 79.6557C69.7719 75.5105 72.3051 72.843 75.7978 72.843C79.3096 72.843 81.594 75.5681 81.594 79.387C81.594 82.707 80.0588 84.8371 77.9095 85.5855V85.6623C79.1952 85.9885 80.5961 86.2956 81.69 86.4875L81.2095 87.8884ZM79.8278 79.4638C79.8278 76.873 78.4852 74.2048 75.7402 74.2048C72.9192 74.2048 71.5375 76.8147 71.5567 79.6173C71.5375 82.3615 73.0535 84.8371 75.6634 84.8371C78.3317 84.8371 79.8278 82.4191 79.8278 79.4638ZM83.7611 73.0541H85.4314V84.5876H90.9583V85.9885H83.7611V73.0541Z" fill="#336791"/>
</svg>
