<svg width="199" height="60" viewBox="0 0 199 60" fill="none" xmlns="http://www.w3.org/2000/svg">
<path d="M114.442 20.4318C115.492 20.4318 116.512 20.5817 117.502 20.8817C118.461 21.2116 118.971 21.6315 118.971 22.1415C118.971 22.4114 118.881 22.6814 118.701 22.9213C118.581 23.1613 118.311 23.3412 118.041 23.3412C117.651 23.2213 117.262 23.0713 116.872 22.8913C116.122 22.5614 115.312 22.3814 114.472 22.4114C113.602 22.3814 112.702 22.5914 111.953 23.0413C111.293 23.4912 110.933 24.2711 110.993 25.0809C110.963 25.8308 111.263 26.5507 111.833 27.0306C112.462 27.5405 113.182 27.9604 113.962 28.2004C114.802 28.5003 115.642 28.8302 116.482 29.2202C117.322 29.6401 118.041 30.27 118.581 31.0498C119.181 32.0097 119.481 33.1195 119.451 34.2593C119.451 36.029 118.941 37.3787 117.891 38.2786C116.752 39.2384 115.282 39.7183 113.782 39.6283C112.432 39.6583 111.083 39.3284 109.913 38.6685C108.833 37.9486 108.293 37.3187 108.293 36.6888C108.293 36.3889 108.413 36.1189 108.593 35.879C108.743 35.669 108.953 35.519 109.223 35.4891C109.463 35.519 109.673 35.639 109.823 35.819C110.063 36.029 110.303 36.2689 110.573 36.5389C110.933 36.8688 111.353 37.1088 111.803 37.2587C112.402 37.4987 113.062 37.5887 113.692 37.5887C114.652 37.6487 115.582 37.3487 116.332 36.7788C116.992 36.1789 117.352 35.2791 117.292 34.3793C117.322 33.5094 117.022 32.6996 116.422 32.0697C115.822 31.4698 115.102 31.0199 114.292 30.7199C113.452 30.42 112.642 30.09 111.773 29.7301C110.933 29.3702 110.213 28.8303 109.643 28.1104C109.043 27.3005 108.713 26.3107 108.773 25.2909C108.743 24.481 108.923 23.6712 109.283 22.9213C109.583 22.2914 110.063 21.7815 110.663 21.4216C111.233 21.0916 111.833 20.8517 112.462 20.6717C113.122 20.5217 113.782 20.4318 114.442 20.4318ZM99.0848 21.8415C100.105 22.7413 100.615 24.1811 100.615 26.1007V33.8693C100.615 35.819 100.105 37.2287 99.0848 38.1286C96.6853 39.9582 93.3858 39.9582 90.9863 38.1286C89.9965 37.2287 89.4865 35.819 89.4865 33.8693V26.1007C89.4865 24.1511 89.9965 22.7413 90.9863 21.8415C93.3858 20.0418 96.6853 20.0418 99.0848 21.8415ZM173.201 20.4918C173.921 20.4918 174.371 20.7317 174.521 21.2416L179.83 38.3385V38.4885C179.83 38.7585 179.65 38.9984 179.41 39.1184C179.14 39.2984 178.81 39.3883 178.451 39.3584C178.121 39.3883 177.791 39.2084 177.671 38.8784L176.531 35.0991H169.752L168.612 38.8784C168.522 39.2084 168.162 39.4183 167.832 39.3883C167.533 39.3883 167.233 39.2984 166.963 39.1184C166.693 38.9984 166.543 38.7585 166.543 38.4585C166.543 38.3985 166.573 38.3085 166.603 38.2486L171.882 21.2416C172.032 20.7317 172.482 20.4918 173.201 20.4918ZM146.446 20.4918C147.136 20.4918 147.706 20.9417 148.186 21.8715L152.235 29.6401L156.315 21.8715C156.824 20.9717 157.394 20.4918 158.054 20.4918C158.564 20.4018 159.044 20.7617 159.134 21.2716C159.164 21.3616 159.164 21.4516 159.134 21.5416V38.5485C159.134 38.7885 159.014 38.9984 158.804 39.1184C158.324 39.3884 157.754 39.3884 157.274 39.1184C157.064 38.9984 156.944 38.7885 156.944 38.5485V25.0209L153.045 32.3396C152.925 32.6996 152.595 32.9695 152.205 32.9695C151.845 32.9395 151.515 32.6996 151.395 32.3396L147.496 24.871V38.5485C147.496 38.7885 147.376 38.9984 147.166 39.1184C146.956 39.2684 146.686 39.3584 146.446 39.3584C146.176 39.3584 145.906 39.2984 145.696 39.1484C145.456 39.0584 145.307 38.8185 145.337 38.5785V21.5716C145.247 21.0616 145.606 20.5817 146.116 20.4918C146.236 20.4618 146.356 20.4618 146.446 20.4918ZM188.379 20.4618C188.709 20.4618 189.039 20.5817 189.309 20.7917C189.609 21.0916 189.878 21.4516 190.028 21.8415L196.477 34.4392V21.2116C196.477 20.9717 196.597 20.7617 196.807 20.6717C197.287 20.4018 197.857 20.4018 198.337 20.6717C198.547 20.7917 198.667 21.0017 198.667 21.2116V38.5785C198.667 38.8185 198.547 39.0284 198.337 39.1484C198.097 39.2984 197.857 39.3584 197.587 39.3584C196.987 39.3284 196.447 38.9384 196.237 38.3685L189.459 25.3809V38.5785C189.459 38.8185 189.339 39.0284 189.159 39.1484C188.679 39.4183 188.109 39.4183 187.629 39.1484C187.419 39.0284 187.299 38.8185 187.299 38.5785V21.2116C187.299 20.7017 187.659 20.4618 188.379 20.4618ZM71.5498 20.4618H76.4389C77.8786 20.4018 79.3184 20.8817 80.4282 21.8115C81.418 22.7114 81.9279 24.1211 81.9279 26.0408V26.2807C81.9279 28.2004 81.418 29.6401 80.3982 30.5399C79.2584 31.4698 77.8186 31.9797 76.3489 31.8897H72.8695V38.5785C72.8695 38.8185 72.7496 39.0284 72.5396 39.1484C72.0597 39.4183 71.4898 39.4183 71.0099 39.1484C70.7999 39.0284 70.6799 38.8185 70.6799 38.5785V21.2116C70.6799 21.0017 70.7699 20.8217 70.9199 20.6717C71.0999 20.5217 71.3098 20.4318 71.5498 20.4618ZM137.178 20.4618C137.418 20.4618 137.628 20.5517 137.748 20.7617C137.898 20.9417 137.958 21.1816 137.958 21.4216C137.958 21.6615 137.898 21.9315 137.748 22.1415C137.628 22.3514 137.418 22.4414 137.178 22.4414H133.069V38.5785C133.069 38.8185 132.949 39.0284 132.739 39.1484C132.259 39.4183 131.689 39.4183 131.209 39.1484C130.999 39.0284 130.879 38.8185 130.879 38.5785V22.4414H126.71C126.47 22.4414 126.26 22.3514 126.14 22.1415C125.99 21.9315 125.9 21.6915 125.9 21.4216C125.9 21.1816 125.96 20.9417 126.11 20.7617C126.23 20.5517 126.44 20.4618 126.68 20.4618H137.178ZM95.0655 22.4114C92.816 22.4114 91.7062 23.6112 91.7062 26.0707L91.6762 33.8693C91.6762 36.2989 92.786 37.5287 95.0655 37.5287C95.9954 37.5887 96.8952 37.2587 97.5851 36.6288C98.245 35.879 98.5449 34.8892 98.4849 33.8693V26.0707C98.5749 25.0809 98.245 24.0911 97.5851 23.3112C96.8952 22.6814 95.9954 22.3514 95.0655 22.4114ZM173.201 23.6412L170.292 33.2994H176.081L173.201 23.6412ZM76.3489 22.4414H72.8695L72.8395 30.09H76.3489C77.2787 30.15 78.2086 29.8201 78.8685 29.1602C79.5283 28.4103 79.8583 27.4205 79.7683 26.4007V26.1007C79.8583 25.1109 79.5283 24.1211 78.8685 23.3412C78.1786 22.7114 77.2787 22.3814 76.3489 22.4414Z" fill="#FF6C37"/>
<path d="M60.6917 33.8093C62.7913 17.3723 51.1834 2.34499 34.7763 0.245363C18.3693 -1.85426 3.282 9.75365 1.18237 26.1607C-0.917248 42.5677 10.6907 57.625 27.0977 59.7547C43.5348 61.8543 58.5621 50.2464 60.6917 33.8093Z" fill="#FF6C37"/>
<path d="M41.7652 19.2619L29.1074 31.9197L25.5381 28.3503C37.9858 15.9025 39.2156 16.9823 41.7652 19.2619Z" fill="white"/>
<path d="M29.1076 32.2196C29.0176 32.2196 28.9576 32.1896 28.8976 32.1296L25.2982 28.5603C25.1783 28.4403 25.1783 28.2603 25.2982 28.1403C37.956 15.4826 39.2757 16.6824 41.9452 19.082C42.0052 19.1419 42.0352 19.2019 42.0352 19.2919C42.0352 19.3819 42.0052 19.4419 41.9452 19.5019L29.2875 32.1296C29.2575 32.1896 29.1675 32.2196 29.1076 32.2196ZM25.9581 28.3503L29.1076 31.4997L41.3154 19.2919C39.0958 17.3123 37.596 16.7124 25.9581 28.3503Z" fill="#FF6C37"/>
<path d="M32.7367 35.549L29.2874 32.0996L41.9451 19.4419C45.3345 22.8613 40.2654 28.4103 32.7367 35.549Z" fill="white"/>
<path d="M32.7369 35.8488C32.6469 35.8488 32.5869 35.8188 32.5269 35.7589L29.0776 32.3095C29.0176 32.2495 29.0176 32.1895 29.0176 32.0995C29.0176 32.0095 29.0476 31.9495 29.1076 31.8896L41.7653 19.2318C41.8853 19.1119 42.0652 19.1119 42.1852 19.2318C42.9651 19.9517 43.385 20.9715 43.355 22.0213C43.295 25.3507 39.5157 29.58 32.9769 35.7589C32.8869 35.8188 32.7969 35.8488 32.7369 35.8488ZM29.7075 32.0995C31.6271 34.0492 32.437 34.829 32.7369 35.129C37.776 30.3298 42.6651 25.4107 42.6951 22.0213C42.7251 21.2415 42.4252 20.4616 41.9153 19.8617L29.7075 32.0995Z" fill="#FF6C37"/>
<path d="M25.5982 28.4402L28.1477 30.9897C28.2077 31.0497 28.2077 31.1097 28.1477 31.1697C28.1177 31.1997 28.1177 31.1997 28.0877 31.1997L22.8087 32.3395C22.5387 32.3695 22.2987 32.1895 22.2388 31.9195C22.2088 31.7696 22.2688 31.6196 22.3587 31.5296L25.4182 28.4702C25.4782 28.4102 25.5682 28.3802 25.5982 28.4402Z" fill="white"/>
<path d="M22.7186 32.6394C22.2687 32.6394 21.9387 32.2795 21.9387 31.8296C21.9387 31.6196 22.0287 31.4097 22.1787 31.2597L25.2381 28.2002C25.4181 28.0503 25.6581 28.0503 25.838 28.2002L28.3876 30.7498C28.5675 30.8998 28.5675 31.1697 28.3876 31.3497C28.3276 31.4097 28.2676 31.4397 28.1776 31.4697L22.8985 32.6095C22.8386 32.6095 22.7786 32.6394 22.7186 32.6394ZM25.5081 28.7701L22.5686 31.7096C22.5086 31.7696 22.4786 31.8596 22.5386 31.9496C22.5686 32.0396 22.6586 32.0696 22.7486 32.0396L27.6977 30.9598L25.5081 28.7701Z" fill="#FF6C37"/>
<path d="M48.4538 12.2431C46.5342 10.3835 43.4447 10.4435 41.5851 12.3931C39.7254 14.3428 39.7854 17.4022 41.735 19.2619C43.3247 20.7916 45.7243 21.0616 47.614 19.9218L44.1946 16.5024L48.4538 12.2431Z" fill="white"/>
<path d="M45.0946 20.9115C42.2451 20.9115 39.9355 18.6019 39.9355 15.7525C39.9355 12.903 42.2451 10.5934 45.0946 10.5934C46.4144 10.5934 47.7041 11.1033 48.664 12.0331C48.724 12.0931 48.754 12.1531 48.754 12.2431C48.754 12.3331 48.724 12.3931 48.664 12.453L44.6147 16.5023L47.7941 19.6817C47.9141 19.8017 47.9141 19.9817 47.7941 20.1017C47.7641 20.1317 47.7641 20.1317 47.7341 20.1617C46.9543 20.6416 46.0245 20.9115 45.0946 20.9115ZM45.0946 11.2233C42.5751 11.2233 40.5354 13.2629 40.5654 15.7825C40.5654 18.302 42.6051 20.3416 45.1246 20.3116C45.8145 20.3116 46.5044 20.1617 47.1343 19.8317L43.9848 16.7123C43.9248 16.6523 43.8948 16.5923 43.8948 16.5023C43.8948 16.4123 43.9248 16.3523 43.9848 16.2924L48.0041 12.2731C47.1942 11.5832 46.1744 11.2233 45.0946 11.2233Z" fill="#FF6C37"/>
<path d="M48.5438 12.3332L48.4838 12.2732L44.1946 16.5024L47.584 19.8918C47.9139 19.6819 48.2439 19.4419 48.5138 19.172C50.4335 17.2823 50.4335 14.2228 48.5438 12.3332Z" fill="white"/>
<path d="M47.6141 20.2216C47.5241 20.2216 47.4641 20.1916 47.4041 20.1316L43.9848 16.7123C43.9248 16.6523 43.8948 16.5923 43.8948 16.5023C43.8948 16.4123 43.9248 16.3523 43.9848 16.2923L48.244 12.0331C48.364 11.9131 48.5439 11.9131 48.6639 12.0331L48.7539 12.0931C50.7635 14.1027 50.7635 17.3421 48.7839 19.3818C48.484 19.6817 48.154 19.9517 47.7941 20.1616C47.7041 20.1916 47.6441 20.2216 47.6141 20.2216ZM44.6146 16.5023L47.6441 19.5318C47.8841 19.3818 48.124 19.1718 48.304 18.9918C50.0137 17.2822 50.1037 14.4927 48.454 12.693L44.6146 16.5023Z" fill="#FF6C37"/>
<path d="M42.2752 19.8017C41.5553 19.0819 40.3855 19.0819 39.6656 19.8017L28.3577 31.1097L30.2473 32.9994L42.2152 22.5013C42.995 21.8414 43.055 20.6716 42.3951 19.8917C42.3352 19.8617 42.3052 19.8317 42.2752 19.8017Z" fill="white"/>
<path d="M30.2172 33.2993C30.1272 33.2993 30.0672 33.2693 30.0072 33.2094L28.1176 31.3197C27.9976 31.1997 27.9976 31.0197 28.1176 30.8998L39.4255 19.5918C40.2654 18.752 41.6151 18.752 42.455 19.5918C43.2948 20.4316 43.2948 21.7814 42.455 22.6213C42.425 22.6513 42.395 22.6812 42.365 22.7112L30.3972 33.2094C30.3672 33.2693 30.3072 33.2993 30.2172 33.2993ZM28.7775 31.1097L30.2472 32.5795L42.0051 22.2613C42.665 21.7214 42.7249 20.7316 42.185 20.0717C41.6451 19.4118 40.6553 19.3518 39.9954 19.8917C39.9654 19.9217 39.9354 19.9517 39.8755 19.9817L28.7775 31.1097Z" fill="#FF6C37"/>
<path d="M19.6892 43.9774C19.5693 44.0374 19.5093 44.1573 19.5393 44.2773L20.0492 46.4369C20.1691 46.7369 19.9892 47.0968 19.6592 47.1868C19.4193 47.2768 19.1493 47.1868 18.9994 47.0068L15.7 43.7374L26.468 32.9694L30.1873 33.0293L32.7069 35.5489C32.107 36.0588 28.4777 39.5682 19.6892 43.9774Z" fill="white"/>
<path d="M19.4492 47.4869C19.2093 47.4869 18.9693 47.3969 18.8194 47.2169L15.5499 43.9475C15.49 43.8875 15.46 43.8275 15.46 43.7376C15.46 43.6476 15.49 43.5876 15.5499 43.5276L26.318 32.7595C26.378 32.6995 26.468 32.6696 26.528 32.6696L30.2473 32.7295C30.3373 32.7295 30.3973 32.7595 30.4573 32.8195L32.9768 35.3391C33.0368 35.3991 33.0668 35.489 33.0668 35.579C33.0668 35.669 33.0368 35.729 32.9468 35.789L32.7369 35.969C29.5574 38.7585 25.2382 41.548 19.8692 44.2175L20.3791 46.3471C20.4691 46.737 20.2891 47.1569 19.9292 47.3669C19.7492 47.4569 19.5992 47.4869 19.4492 47.4869ZM16.1498 43.7376L19.2393 46.797C19.3293 46.947 19.5092 47.007 19.6592 46.917C19.8092 46.827 19.8692 46.647 19.7792 46.4971L19.2693 44.3375C19.2093 44.0675 19.3293 43.8275 19.5692 43.7076C24.8783 41.0381 29.1675 38.2785 32.3169 35.549L30.0973 33.3294L26.648 33.2694L16.1498 43.7376Z" fill="#FF6C37"/>
<path d="M13.1503 46.3171L15.7299 43.7375L19.5692 47.5769L13.4503 47.1569C13.1803 47.1269 13.0004 46.887 13.0304 46.617C13.0304 46.4971 13.0604 46.3771 13.1503 46.3171Z" fill="white"/>
<path d="M19.5691 47.8468L13.4202 47.4269C12.9703 47.3969 12.6703 47.0069 12.7003 46.557C12.7303 46.3771 12.7903 46.1971 12.9403 46.0771L15.5198 43.4976C15.6398 43.3776 15.8197 43.3776 15.9397 43.4976L19.779 47.3369C19.869 47.4269 19.899 47.5468 19.839 47.6668C19.779 47.7868 19.689 47.8468 19.5691 47.8468ZM15.7298 44.1575L13.3602 46.527C13.2702 46.587 13.2702 46.737 13.3602 46.797C13.3902 46.827 13.4202 46.857 13.4802 46.857L18.7892 47.2169L15.7298 44.1575Z" fill="#FF6C37"/>
<path d="M25.4181 34.3491C25.2381 34.3491 25.1182 34.1991 25.1182 34.0491C25.1182 33.9592 25.1482 33.8992 25.2081 33.8392L28.1176 30.9297C28.2376 30.8097 28.4176 30.8097 28.5375 30.9297L30.4272 32.8194C30.5172 32.9093 30.5472 32.9993 30.5172 33.1193C30.4872 33.2093 30.3972 33.2993 30.2772 33.3293L25.4781 34.3491C25.4481 34.3491 25.4181 34.3491 25.4181 34.3491ZM28.3276 31.5596L26.3479 33.5392L29.5874 32.8494L28.3276 31.5596Z" fill="#FF6C37"/>
<path d="M30.187 33.0295L26.8876 33.7493C26.6477 33.8093 26.4077 33.6594 26.3477 33.4194C26.3177 33.2694 26.3477 33.1194 26.4677 32.9995L28.2974 31.1698L30.187 33.0295Z" fill="white"/>
<path d="M26.8277 34.0491C26.4078 34.0491 26.0779 33.7192 26.0779 33.2993C26.0779 33.0893 26.1679 32.9093 26.2878 32.7594L28.1175 30.9297C28.2375 30.8097 28.4175 30.8097 28.5374 30.9297L30.4271 32.8194C30.5171 32.9093 30.5471 32.9993 30.5171 33.1193C30.4871 33.2093 30.3971 33.2993 30.2771 33.3293L26.9777 34.0491C26.9177 34.0491 26.8577 34.0491 26.8277 34.0491ZM28.3275 31.5596L26.7078 33.1793C26.6478 33.2393 26.6478 33.2993 26.6778 33.3593C26.7078 33.4193 26.7678 33.4493 26.8577 33.4493L29.6172 32.8494L28.3275 31.5596Z" fill="#FF6C37"/>
<path d="M48.5738 15.2126C48.5138 15.0326 48.3039 14.9426 48.1239 15.0026C47.9439 15.0626 47.8539 15.2726 47.9139 15.4526C47.9139 15.4826 47.9439 15.5125 47.9439 15.5425C48.1239 15.9025 48.0639 16.3524 47.8239 16.6823C47.704 16.8323 47.734 17.0423 47.8539 17.1623C48.0039 17.2822 48.2139 17.2522 48.3338 17.1023C48.7838 16.5324 48.8737 15.8125 48.5738 15.2126Z" fill="#FF6C37"/>
</svg>
