<svg width="83" height="90" viewBox="0 0 83 90" fill="none" xmlns="http://www.w3.org/2000/svg">
<path d="M82.0365 36.2521C82.0365 30.86 75.282 25.7499 64.926 22.5809C67.3159 12.0288 66.2538 3.63354 61.5734 0.945717C60.4946 0.315239 59.2336 0.0165834 57.8561 0.0165834V3.71649C58.6194 3.71649 59.2336 3.86582 59.7479 4.14786C62.005 5.44198 62.9844 10.3696 62.2206 16.7075C62.0384 18.2672 61.7397 19.9097 61.3745 21.5854C58.1214 20.789 54.5699 20.1752 50.8359 19.777C48.5955 16.7075 46.272 13.9202 43.9319 11.4813C49.3422 6.45407 54.4208 3.69987 57.8728 3.69987V0C53.3086 0 47.3341 3.25193 41.2933 8.89299C35.2521 3.2851 29.2777 0.066372 24.7139 0.066372V3.76625C28.1492 3.76625 33.2441 6.50386 38.6544 11.4979C36.3309 13.9368 34.0074 16.7075 31.8001 19.777C28.0493 20.1752 24.4979 20.789 21.2452 21.602C20.8633 19.9429 20.5812 18.3335 20.382 16.7905C19.6023 10.4526 20.5645 5.52493 22.8053 4.21423C23.3029 3.91557 23.9501 3.78287 24.7139 3.78287V0.0829554C23.3196 0.0829554 22.0582 0.381611 20.9631 1.01209C16.2994 3.69987 15.254 12.0785 17.6603 22.5975C7.33761 25.7831 0.616211 30.8767 0.616211 36.2521C0.616211 41.6446 7.37079 46.7547 17.7267 49.9235C15.3368 60.4758 16.3989 68.8708 21.0793 71.5587C22.1581 72.189 23.4191 72.4877 24.8133 72.4877C29.3772 72.4877 35.3519 69.2359 41.3928 63.5948C47.4336 69.2029 53.4084 72.4216 57.9722 72.4216C59.3661 72.4216 60.6275 72.123 61.723 71.4923C66.3863 68.8044 67.432 60.4257 65.0254 49.9071C75.315 46.7381 82.0365 41.6279 82.0365 36.2521ZM60.4286 25.1858C59.8144 27.3262 59.051 29.5325 58.1878 31.7393C57.5076 30.4122 56.794 29.0847 56.0139 27.7573C55.2505 26.4301 54.4371 25.136 53.624 23.875C55.9805 24.2235 58.2543 24.6549 60.4286 25.1858ZM52.8272 42.8555C51.5328 45.0956 50.2054 47.2192 48.8278 49.1937C46.3548 49.4093 43.8491 49.5254 41.3263 49.5254C38.8203 49.5254 36.3142 49.4093 33.8582 49.21C32.4807 47.2356 31.1362 45.1287 29.8418 42.9053C28.5804 40.7319 27.4355 38.5252 26.3898 36.3022C27.4188 34.0788 28.5804 31.8554 29.8254 29.6821C31.1199 27.4423 32.4473 25.3185 33.8248 23.3441C36.2979 23.1284 38.8036 23.0123 41.3263 23.0123C43.8324 23.0123 46.3385 23.1284 48.7944 23.3275C50.172 25.3019 51.5165 27.4089 52.8109 29.6323C54.0723 31.8057 55.2171 34.0124 56.2629 36.2358C55.2171 38.4588 54.0723 40.6822 52.8272 42.8555ZM58.1878 40.6989C59.059 42.8611 59.8234 45.0648 60.4783 47.302C58.304 47.8329 56.0139 48.281 53.6407 48.6294C54.4538 47.3521 55.2669 46.0413 56.0306 44.6972C56.794 43.3701 57.5076 42.026 58.1878 40.6989ZM41.3594 58.4019C39.8159 56.8089 38.2725 55.0336 36.7458 53.0925C38.2395 53.1589 39.7662 53.2087 41.3096 53.2087C42.8698 53.2087 44.4132 53.1756 45.9236 53.0925C44.499 54.9433 42.9754 56.7157 41.3594 58.4019ZM29.012 48.6294C26.6555 48.281 24.3817 47.8496 22.2078 47.3187C22.8216 45.1784 23.5853 42.9717 24.4481 40.7649C25.1288 42.0924 25.8424 43.4198 26.6221 44.7469C27.4021 46.0743 28.1989 47.3684 29.012 48.6294ZM41.2766 14.1027C42.82 15.6955 44.3635 17.4708 45.8902 19.412C44.3965 19.3456 42.8698 19.2958 41.3263 19.2958C39.7662 19.2958 38.2228 19.329 36.7128 19.412C38.1372 17.5613 39.6607 15.7889 41.2766 14.1027ZM28.9953 23.875C28.1822 25.1526 27.3691 26.4633 26.6057 27.807C25.8424 29.1345 25.1288 30.4619 24.4481 31.789C23.5769 29.6268 22.8126 27.4231 22.1581 25.1858C24.332 24.6714 26.6221 24.2235 28.9953 23.875ZM13.976 44.6475C8.10105 42.1421 4.30053 38.8573 4.30053 36.2521C4.30053 33.6473 8.10105 30.3458 13.976 27.8571C15.4032 27.2431 16.9634 26.6956 18.5732 26.1813C19.5191 29.4331 20.7638 32.8178 22.3073 36.2855C20.7805 39.7365 19.5522 43.1045 18.6229 46.34C16.98 45.8254 15.4199 45.2615 13.976 44.6475ZM22.9047 68.3566C20.6477 67.0626 19.6683 62.1349 20.4321 55.7968C20.6146 54.2375 20.913 52.5947 21.2782 50.9189C24.5313 51.7154 28.0827 52.3294 31.8168 52.7275C34.0572 55.7968 36.3806 58.5841 38.7208 61.023C33.3105 66.0505 28.2319 68.8044 24.7799 68.8044C24.0333 68.7881 23.4027 68.6386 22.9047 68.3566ZM62.2707 55.714C63.0504 62.0518 62.0881 66.9795 59.8474 68.2902C59.3498 68.5889 58.7025 68.7217 57.9388 68.7217C54.5035 68.7217 49.4086 65.9841 43.9983 60.99C46.3218 58.5511 48.6453 55.7804 50.8526 52.7108C54.6033 52.3127 58.1548 51.6987 61.4075 50.8858C61.7894 52.5616 62.0881 54.171 62.2707 55.714ZM68.66 44.6475C67.2328 45.2615 65.6726 45.8091 64.0628 46.3233C63.1168 43.0715 61.8722 39.6868 60.3287 36.2191C61.8558 32.768 63.0838 29.4001 64.0131 26.1646C65.6563 26.679 67.2161 27.2431 68.6767 27.8571C74.5517 30.3621 78.3521 33.6473 78.3521 36.2521C78.3354 38.8573 74.535 42.1588 68.66 44.6475Z" fill="#61DAFB"/>
<path d="M41.3098 43.8346C45.4988 43.8346 48.8944 40.4399 48.8944 36.2521C48.8944 32.0646 45.4988 28.6699 41.3098 28.6699C37.1211 28.6699 33.7255 32.0646 33.7255 36.2521C33.7255 40.4399 37.1211 43.8346 41.3098 43.8346ZM4.31349 85.5428H1.80984V89.8534H0.396973V79.1976H3.9255C5.12606 79.1976 6.04848 79.471 6.69268 80.0175C7.34178 80.5636 7.66635 81.359 7.66635 82.403C7.66635 83.0667 7.48577 83.6447 7.12461 84.1378C6.76835 84.6305 6.27055 84.9989 5.63121 85.2426L8.13487 89.7655V89.8534H6.62681L4.31349 85.5428ZM1.80984 84.3938H3.96944C4.66734 84.3938 5.22125 84.2131 5.63121 83.8521C6.04603 83.4911 6.25344 83.0081 6.25344 82.403C6.25344 81.7445 6.05579 81.2395 5.66049 80.8882C5.27005 80.5369 4.70393 80.3588 3.9621 80.354H1.80984V84.3938ZM12.7177 90C11.6439 90 10.7703 89.6486 10.0968 88.946C9.42327 88.2385 9.08653 87.2943 9.08653 86.1137V85.8648C9.08653 85.0794 9.23538 84.3793 9.53308 83.7646C9.83567 83.1446 10.2554 82.6616 10.7922 82.3154C11.334 81.9641 11.9196 81.7882 12.5492 81.7882C13.579 81.7882 14.3795 82.1273 14.9503 82.8055C15.5214 83.4837 15.8068 84.4546 15.8068 85.7182V86.2818H10.4408C10.4604 87.0628 10.6873 87.6946 11.1217 88.1776C11.5609 88.6555 12.1173 88.8947 12.7908 88.8947C13.2692 88.8947 13.674 88.7972 14.0058 88.602C14.3379 88.4069 14.6282 88.1483 14.8772 87.8263L15.7043 88.4703C15.0404 89.4898 14.0451 90 12.7177 90ZM12.5492 82.9009C12.0026 82.9009 11.5438 83.1008 11.1729 83.5008C10.802 83.8963 10.5726 84.4524 10.4848 85.1695H14.4526V85.0671C14.4137 84.3793 14.2281 83.8473 13.8963 83.4715C13.5642 83.0912 13.1152 82.9009 12.5492 82.9009ZM22.271 89.8534C22.1927 89.6972 22.1293 89.4193 22.0807 89.019C21.4509 89.6727 20.6994 90 19.8258 90C19.045 90 18.4034 89.7803 17.9005 89.3411C17.4029 88.897 17.1539 88.336 17.1539 87.6578C17.1539 86.8335 17.4664 86.1942 18.0909 85.7405C18.7203 85.2816 19.6039 85.0523 20.741 85.0523H22.0588V84.4305C22.0588 83.9571 21.917 83.5813 21.6342 83.3034C21.3511 83.0203 20.9336 82.879 20.3821 82.879C19.8989 82.879 19.4941 83.0007 19.1671 83.2448C18.8402 83.4885 18.6765 83.7839 18.6765 84.1304H17.3149C17.3149 83.7353 17.4541 83.3546 17.7321 82.9884C18.0152 82.6178 18.396 82.3251 18.8743 82.1103C19.3575 81.8958 19.8867 81.7882 20.4627 81.7882C21.3756 81.7882 22.0903 82.0175 22.6076 82.4764C23.1249 82.9302 23.3933 83.5572 23.4129 84.3571V88.0018C23.4129 88.7289 23.5057 89.3069 23.6913 89.7362V89.8534H22.271ZM20.0236 88.8217C20.4482 88.8217 20.8508 88.7119 21.2316 88.4922C21.612 88.2726 21.8877 87.9873 22.0588 87.6359V86.0113H20.997C19.3378 86.0113 18.508 86.4966 18.508 87.4675C18.508 87.8919 18.6498 88.224 18.9326 88.4629C19.2157 88.7018 19.5794 88.8217 20.0236 88.8217ZM28.713 88.8947C29.1962 88.8947 29.6185 88.7482 29.9796 88.4555C30.3407 88.1628 30.5407 87.797 30.5797 87.3577H31.8611C31.8366 87.8114 31.6804 88.2433 31.3924 88.6532C31.1044 89.0632 30.7189 89.39 30.2357 89.6338C29.7573 89.8779 29.25 90 28.713 90C27.6346 90 26.7755 89.6412 26.1361 88.9241C25.5019 88.2017 25.1846 87.2163 25.1846 85.9672V85.7405C25.1846 84.9696 25.326 84.284 25.6091 83.6841C25.8923 83.0838 26.2971 82.6178 26.8245 82.2861C27.3563 81.9541 27.9834 81.7882 28.7056 81.7882C29.594 81.7882 30.3311 82.0543 30.9167 82.5863C31.5071 83.1179 31.8218 83.8083 31.8611 84.6572H30.5797C30.5407 84.1448 30.3455 83.7252 29.9941 83.3984C29.6478 83.0667 29.2181 82.9009 28.7056 82.9009C28.0176 82.9009 27.4832 83.1494 27.1024 83.6473C26.7269 84.14 26.5387 84.8549 26.5387 85.7917V86.0477C26.5387 86.96 26.7269 87.6627 27.1024 88.1553C27.4784 88.6484 28.0154 88.8947 28.713 88.8947ZM35.2211 80.0175V81.9348H36.6999V82.9814H35.2211V87.8919C35.2211 88.2091 35.2872 88.4481 35.4189 88.6091C35.5506 88.7653 35.7751 88.8436 36.0924 88.8436C36.2483 88.8436 36.4632 88.8142 36.7363 88.7556V89.8534C36.3801 89.951 36.0338 90 35.6968 90C35.0919 90 34.6355 89.8167 34.3278 89.4509C34.0206 89.0851 33.8669 88.5653 33.8669 87.8919V82.9814H32.4245V81.9348H33.8669V80.0175H35.2211ZM50.4115 89.8534H48.9983L43.6325 81.6421V89.8534H42.2197V79.1976H43.6325L49.0132 87.4456V79.1976H50.4115V89.8534ZM57.5857 89.8534C57.5074 89.6972 57.4439 89.4193 57.3953 89.019C56.7655 89.6727 56.0141 90 55.1405 90C54.3597 90 53.7177 89.7803 53.2152 89.3411C52.7175 88.897 52.4685 88.336 52.4685 87.6578C52.4685 86.8335 52.7806 86.1942 53.4056 85.7405C54.035 85.2816 54.9186 85.0523 56.0556 85.0523H57.3734V84.4305C57.3734 83.9571 57.2317 83.5813 56.9485 83.3034C56.6657 83.0203 56.2482 82.879 55.6968 82.879C55.2136 82.879 54.8087 83.0007 54.4818 83.2448C54.1548 83.4885 53.9912 83.7839 53.9912 84.1304H52.6296C52.6296 83.7353 52.7688 83.3546 53.0467 82.9884C53.3299 82.6178 53.7106 82.3251 54.189 82.1103C54.6721 81.8958 55.2013 81.7882 55.7773 81.7882C56.6898 81.7882 57.405 82.0175 57.9223 82.4764C58.4396 82.9302 58.7079 83.5572 58.7276 84.3571V88.0018C58.7276 88.7289 58.8203 89.3069 59.0059 89.7362V89.8534H57.5857ZM55.3383 88.8217C55.7628 88.8217 56.1655 88.7119 56.5462 88.4922C56.9266 88.2726 57.2023 87.9873 57.3734 87.6359V86.0113H56.3117C54.6525 86.0113 53.8227 86.4966 53.8227 87.4675C53.8227 87.8919 53.9644 88.224 54.2472 88.4629C54.5304 88.7018 54.8941 88.8217 55.3383 88.8217ZM62.688 80.0175V81.9348H64.1668V82.9814H62.688V87.8919C62.688 88.2091 62.7541 88.4481 62.8858 88.6091C63.0175 88.7653 63.2421 88.8436 63.5594 88.8436C63.7152 88.8436 63.9301 88.8142 64.2036 88.7556V89.8534C63.847 89.951 63.5007 90 63.1637 90C62.5589 90 62.1024 89.8167 61.7948 89.4509C61.4875 89.0851 61.3338 88.5653 61.3338 87.8919V82.9814H59.8917V81.9348H61.3338V80.0175H62.688ZM67.227 89.8534H65.8724V81.9348H67.227V89.8534ZM65.7626 79.8342C65.7626 79.6149 65.8287 79.4294 65.9604 79.2781C66.097 79.1267 66.297 79.0514 66.5605 79.0514C66.8243 79.0514 67.0243 79.1267 67.1609 79.2781C67.2975 79.4294 67.3658 79.6149 67.3658 79.8342C67.3658 80.0538 67.2975 80.2367 67.1609 80.3833C67.0243 80.5294 66.8243 80.6029 66.5605 80.6029C66.297 80.6029 66.097 80.5294 65.9604 80.3833C65.8287 80.2367 65.7626 80.0538 65.7626 79.8342ZM72.0146 88.0166L73.9762 81.9348H75.3601L72.5197 89.8534H71.4872L68.6179 81.9348H70.0013L72.0146 88.0166ZM79.8475 90C78.7739 90 77.9003 89.6486 77.2267 88.946C76.5532 88.2385 76.2166 87.2943 76.2166 86.1137V85.8648C76.2166 85.0794 76.3654 84.3793 76.663 83.7646C76.9655 83.1446 77.3852 82.6616 77.9222 82.3154C78.464 81.9641 79.0496 81.7882 79.679 81.7882C80.7088 81.7882 81.5093 82.1273 82.0804 82.8055C82.6512 83.4837 82.9369 84.4546 82.9369 85.7182V86.2818H77.5708C77.5904 87.0628 77.8172 87.6946 78.2517 88.1776C78.6907 88.6555 79.2474 88.8947 79.9206 88.8947C80.3989 88.8947 80.8042 88.7972 81.136 88.602C81.4677 88.4069 81.7583 88.1483 82.0073 87.8263L82.8345 88.4703C82.1706 89.4898 81.1749 90 79.8475 90ZM79.679 82.9009C79.1327 82.9009 78.6737 83.1008 78.3029 83.5008C77.9318 83.8963 77.7025 84.4524 77.6149 85.1695H81.5824V85.0671C81.5434 84.3793 81.3579 83.8473 81.0261 83.4715C80.6943 83.0912 80.2453 82.9009 79.679 82.9009Z" fill="#61DAFB"/>
</svg>
